<?xml version="1.0" encoding="utf-8"?>
<!DOCTYPE svg PUBLIC "-//W3C//DTD SVG 1.0//EN" "http://www.w3.org/TR/2001/REC-SVG-20010904/DTD/svg10.dtd">
<svg version="1.0" xmlns="http://www.w3.org/2000/svg" width="600px" height="225px" viewBox="0 0 600 225" preserveAspectRatio="xMidYMid meet">
 <g fill="#ffffff">
  <path d="M320.85 81.15 c-0.60 -0.55 -0.40 -4.40 0.25 -5.05 0.35 -0.35 1.70 -0.60 3 -0.60 l2.40 0 0 3 0 3 -2.65 0 c-1.50 0 -2.85 -0.15 -3 -0.35z"/>
  <path d="M188.20 75.80 c-0.15 -0.40 -0.20 -1.35 -0.10 -2.15 l0.15 -1.40 18.15 -0.15 18.10 -0.10 0 2.25 0 2.25 -18 0 c-15.10 0 -18.10 -0.10 -18.30 -0.70z"/>
  <path d="M188.20 70.80 c-0.15 -0.40 -0.20 -1.45 -0.10 -2.40 0.15 -1.60 0.20 -1.65 2.55 -1.65 1.30 0.05 9.45 0.10 18.10 0.15 l15.75 0.10 0 1.95 c0 1.30 -0.25 2.05 -0.80 2.25 -0.45 0.15 -8.55 0.30 -18 0.30 -14.35 0 -17.30 -0.10 -17.50 -0.70z"/>
 </g>
 <g fill="#ebf7d0">
  <path d="M0 112.50 l0 -112.50 300 0 300 0 0 112.50 0 112.50 -300 0 -300 0 0 -112.50z m410.40 95.70 c1.45 -0.40 1.40 -1.10 -0.15 -1.70 -1 -0.40 -1.25 -0.80 -1.25 -2.30 0 -1 0.40 -2.40 0.95 -3.10 0.50 -0.75 1.20 -2.25 1.50 -3.35 0.75 -2.70 0.75 -110.65 0.05 -113.35 -0.75 -2.60 -3.35 -5.85 -5.75 -7.10 -1.95 -1 -2.80 -1.05 -25.50 -1.20 -25.20 -0.15 -28.55 0.05 -29.45 1.65 -0.30 0.55 -1.05 1.65 -1.70 2.45 -2.75 3.40 -2.60 0.45 -2.60 60.80 0 58 0 57.55 2.10 60.60 1.05 1.50 1.25 4.40 0.30 4.40 -0.35 0 -28.05 0.10 -61.50 0.15 -47.10 0.05 -61 0.25 -61.45 0.70 -0.50 0.50 -0.35 0.70 0.60 1.10 1.30 0.55 181.85 0.75 183.85 0.25z m-79.40 -24.55 c-0.05 -1.95 -2.10 -10.05 -3.55 -14.10 -5.30 -14.45 -15.15 -27.20 -27.30 -35.25 -4.80 -3.15 -5.15 -3.50 -5.15 -5.05 0 -1.15 1.60 -4.35 5.80 -11.50 3.15 -5.40 5.60 -10 5.45 -10.15 -0.55 -0.55 -1.75 1.20 -6.95 10.35 -2.90 5.05 -5.55 9.50 -5.85 9.85 -0.90 1.10 -2.60 0.85 -8.85 -1.25 -16.15 -5.50 -31.10 -5.55 -46.35 -0.20 -2.75 1 -5.90 1.90 -7.05 2 l-2.05 0.25 -6.10 -10.55 c-5.45 -9.30 -7.05 -11.65 -7.05 -10.15 0 0.50 8.65 15.65 10.05 17.70 0.55 0.75 0.95 2.15 0.95 3.30 0 2 -0.10 2.10 -4.60 5.20 -15.45 10.55 -26.30 26.60 -30.05 44.55 l-1.25 5.85 69.95 0 c66.30 0 69.95 -0.05 69.95 -0.85z m-59.30 -73.65 c1.15 -0.40 1.30 -0.75 1.30 -3.05 0 -3.45 0.90 -4.45 4 -4.45 2 0 2.40 -0.20 2.90 -1.20 0.45 -1 0.35 -1.35 -0.45 -2.10 -0.70 -0.65 -0.95 -1.50 -0.95 -3.65 0 -3.10 0.25 -3.65 1.90 -4.50 0.90 -0.50 1 -0.75 0.60 -1.55 -0.25 -0.50 -0.50 -1.60 -0.50 -2.45 0 -1.45 0.10 -1.55 2 -1.55 1.70 0 2.20 0.30 3.80 2.20 l1.80 2.20 2.95 -1.30 2.95 -1.25 0 -3.60 c0 -3.60 0 -3.65 1.85 -5.05 1.55 -1.20 2.55 -1.50 5.30 -1.70 l3.45 -0.25 1.15 -2.85 1.15 -2.85 -1.70 -1.10 c-2.50 -1.50 -3.20 -2.85 -3.55 -6.75 l-0.30 -3.40 2.15 -1.85 2.20 -1.90 -1.20 -2.90 -1.15 -2.90 -3.55 0.15 c-3.35 0.10 -3.65 0.05 -5.15 -1.40 -1.55 -1.40 -1.65 -1.65 -1.65 -5.10 l0 -3.65 -2.70 -1.05 -2.75 -1.10 -1.90 2.20 c-1.85 2.15 -2.05 2.20 -5.40 2.50 l-3.50 0.30 -2.15 -2.30 -2.10 -2.30 -2.75 1.25 -2.75 1.20 0 3.70 0 3.70 -1.95 1.30 c-1.55 1.05 -2.70 1.35 -5.60 1.45 l-3.60 0.15 -1 2.90 -0.95 2.90 1.20 0.90 c3.35 2.65 3.35 2.70 3.70 6.40 l0.30 3.60 -2.25 2.05 -2.25 2.05 1.45 3 c0.80 1.65 1.80 3.10 2.20 3.25 0.55 0.25 0.75 1.15 0.75 3.55 0 3.90 -0.60 4.60 -4.05 4.65 -1.90 0 -2.40 0.20 -2.85 1.20 -0.45 1 -0.35 1.35 0.45 2.10 0.70 0.65 0.95 1.50 0.95 3.55 0 2.40 -0.20 2.90 -1.45 4 -1.30 1.15 -1.40 1.45 -0.95 2.70 0.45 1.30 0.75 1.45 2.55 1.45 2.95 0.05 3.95 0.95 4.25 3.95 0.15 1.95 0.45 2.55 1.35 2.95 0.95 0.45 1.30 0.35 2.05 -0.45 0.60 -0.65 1.50 -0.95 3 -0.95 2.85 0 4.35 0.60 5.15 2.20 0.40 0.70 0.80 1.30 0.85 1.30 0.10 0 0.70 -0.20 1.40 -0.50z m-44.70 -38.25 l0 -8.25 -19.50 0 -19.50 0 0 7.90 c0 4.35 0.15 8.10 0.35 8.25 0.15 0.20 8.95 0.35 19.50 0.35 l19.15 0 0 -8.25z m98 6.75 c0 -1.15 -0.25 -1.50 -0.95 -1.50 -1.20 0 -2.25 1.25 -1.85 2.25 0.15 0.40 0.85 0.75 1.55 0.75 1.05 0 1.25 -0.25 1.25 -1.50z m19.40 -13.85 l0.15 -6.15 -6.30 0 -6.25 0 0 6.25 0 6.30 6.15 -0.15 6.10 -0.15 0.15 -6.10z m65.95 1.75 c0.90 -0.65 2.15 -2.10 2.75 -3.25 0.95 -1.75 1.40 -2.15 2.50 -2.15 l1.40 0 0 -6.40 0 -6.40 2.45 -2.40 c1.45 -1.45 3.05 -3.70 3.80 -5.45 1.20 -2.60 1.35 -3.45 1.15 -6.55 -0.45 -6.95 -5.45 -13.05 -12.45 -15.10 -7.20 -2.15 -16.45 2.85 -19.20 10.35 -2.20 6.05 -0.90 11.35 4.05 16.90 l2.45 2.70 0 6.05 0 6.05 1.35 0.15 c0.90 0.10 1.50 0.60 1.90 1.55 0.85 2.05 4.20 5 5.70 5.05 0.30 0 1.25 -0.50 2.15 -1.10z m-85.35 -16.45 c0 -0.25 -0.45 -0.45 -1 -0.45 -0.95 0 -1.35 1 -0.65 1.65 0.35 0.40 1.65 -0.55 1.65 -1.20z m27.55 -0.60 c-0.35 -0.35 -0.60 -0.25 -0.85 0.35 -0.20 0.55 -0.05 1.05 0.35 1.35 0.85 0.55 1.30 -0.90 0.50 -1.70z m-143.90 -6.05 c0.80 -0.65 0.80 -0.70 -0.40 -0.90 -0.95 -0.20 -1.25 -0.05 -1.25 0.65 0 1.10 0.40 1.15 1.65 0.25z m6.85 -0.60 c0 -0.55 -0.25 -0.70 -0.80 -0.50 -0.45 0.15 -1.05 0.30 -1.35 0.30 -0.80 0 0.70 1 1.55 1 0.30 0 0.60 -0.35 0.60 -0.80z m-11.25 -6.95 c0 -3.70 -0.10 -4.25 -0.85 -4.25 -1 0 -1.20 0.75 -0.35 1.30 0.40 0.20 0.50 1.45 0.30 3.50 -0.20 2.95 -0.10 3.70 0.60 3.70 0.15 0 0.30 -1.90 0.30 -4.25z m15.25 3.05 c0 -0.40 -0.20 -0.90 -0.50 -1.05 -0.65 -0.40 -0.65 -5.10 0 -5.50 0.65 -0.40 0.15 -1.25 -0.65 -1.25 -0.40 0 -0.60 1.30 -0.60 4.25 0 3.70 0.10 4.25 0.90 4.25 0.45 0 0.85 -0.30 0.85 -0.70z m-36.25 -8.30 c1.10 -1.20 5.75 -1.45 6.70 -0.30 0.35 0.40 1.05 0.60 1.55 0.45 0.75 -0.20 1 -0.70 1 -1.95 0 -1.95 0.05 -1.95 -1.80 -0.95 -1.85 0.95 -6.20 0.95 -8.45 0.05 l-1.70 -0.75 0.25 1.60 c0.55 3.25 0.95 3.55 2.45 1.85z m25.15 -2.55 c-0.10 -0.30 -0.40 -0.50 -0.65 -0.50 -0.25 0 -0.55 0.20 -0.65 0.50 -0.10 0.30 0.20 0.55 0.65 0.55 0.45 0 0.75 -0.25 0.65 -0.55z m6.60 -0.25 c0 -0.55 -0.25 -0.70 -0.80 -0.50 -0.45 0.15 -0.90 0.30 -1 0.30 -0.15 0 -0.10 0.25 0.05 0.50 0.50 0.80 1.75 0.60 1.75 -0.30z m-36.80 -3.95 c-0.90 -2.25 -0.90 -6.90 0.05 -8.75 l0.75 -1.45 -1.90 0.30 c-2.35 0.40 -2.80 1.10 -1.60 2.40 1.25 1.30 1.40 5.80 0.25 6.75 -1.15 0.95 -0.05 2.50 1.75 2.50 l1.45 0 -0.75 -1.75z m18.55 1.25 c1.55 0 1.95 -1.30 0.75 -2.50 -1.25 -1.25 -1.45 -6.35 -0.25 -6.80 1.30 -0.50 -0.05 -2.20 -1.75 -2.20 l-1.45 0 0.75 1.75 c0.90 2.25 0.90 6.60 -0.05 8.45 -0.95 1.80 -0.95 2 0.05 1.60 0.45 -0.15 1.30 -0.30 1.95 -0.30z m-10.10 -14.40 c2 0.10 4 0.40 4.50 0.60 0.70 0.35 0.85 0.15 0.85 -1.15 0 -1.90 -1.15 -2.50 -2.45 -1.35 -1.15 1.05 -5.70 1.10 -6.55 0.10 -0.85 -1.10 -2 -0.40 -2 1.25 0 1.35 0.10 1.45 1.05 0.95 0.60 -0.35 2.55 -0.50 4.60 -0.40z"/>
  <path d="M355.40 144.50 c-0.05 -16.75 -0.15 -32.35 -0.15 -34.60 l0 -4.15 8.75 0 8.75 0 0 34.50 0 34.50 -8.60 0.15 -8.65 0.10 -0.10 -30.50z"/>
  <path d="M389.55 168.05 l-9.70 -0.30 -0.10 -11.35 c-0.05 -6.25 0.05 -11.60 0.25 -11.90 0.20 -0.35 4.05 -0.50 12.05 -0.40 l11.70 0.15 0 12 0 12 -2.25 0.05 c-1.25 0 -6.60 -0.10 -11.95 -0.25z"/>
  <path d="M380.15 134.90 c-0.30 -0.40 -0.40 -5.15 -0.25 -12.25 l0.20 -11.65 8.90 0 c4.85 0 10.25 0.15 11.95 0.30 l3.05 0.35 -0.10 11.80 -0.15 11.80 -11.55 0.15 c-8.90 0.10 -11.70 -0.05 -12.05 -0.50z"/>
  <path d="M224.75 166.55 c-2.15 -0.95 -3.40 -2.95 -3.65 -5.75 -0.45 -5.65 1.75 -8.30 7 -8.30 1.55 0 3.40 0.20 4.10 0.50 2.10 0.80 3.30 3.30 3.30 6.90 0 2.85 -0.15 3.25 -1.70 4.95 -1.55 1.70 -1.90 1.85 -4.85 2 -1.75 0.05 -3.65 -0.05 -4.20 -0.30z"/>
  <path d="M289.60 166 c-2.30 -1.40 -3.30 -4 -2.90 -7.50 0.25 -2.30 0.60 -3 2.05 -4.35 1.60 -1.55 1.95 -1.65 5.30 -1.65 3.35 0 3.65 0.10 5.25 1.70 1.65 1.65 1.70 1.85 1.70 5.40 0 4.20 -0.70 5.60 -3.30 6.70 -2.45 1.05 -6.15 0.90 -8.10 -0.30z"/>
  <path d="M262.10 103.40 c-2.30 -0.75 -4.45 -3.05 -5.10 -5.30 -1.90 -6.90 1.35 -12.80 7.15 -12.85 l2.60 0 0.15 1.85 c0.15 1.75 0.25 1.85 4.15 3.40 l3.95 1.60 0 3.15 c0 3.40 -1 5.50 -3.55 7.40 -1.60 1.15 -6.90 1.60 -9.35 0.75z"/>
  <path d="M273.35 80.30 c-4.15 -1.55 -7.80 -5.55 -9.10 -9.95 -1.10 -3.70 -0.95 -9.70 0.25 -13.05 1.30 -3.45 4.40 -6.95 7.70 -8.70 2.30 -1.25 3.05 -1.35 8.05 -1.35 6.55 0 8.95 0.85 12.45 4.50 3.40 3.50 4.45 6.75 4.20 13.25 -0.25 6.05 -0.95 7.85 -4.50 11.45 -3.30 3.35 -5.70 4.25 -11.90 4.40 -3.60 0.10 -5.85 -0.05 -7.15 -0.55z"/>
 </g>
 <g fill="#d4f0d4">
  <path d="M286.50 159.25 c0 -1.40 0.20 -1.75 1 -1.75 0.85 0 1 0.30 0.85 1.75 -0.05 1.30 -0.35 1.75 -0.95 1.75 -0.70 0 -0.90 -0.40 -0.90 -1.75z"/>
  <path d="M323.50 159.25 c0 -2.65 0.65 -2.30 2.40 1.40 0.10 0.20 -0.40 0.35 -1.10 0.35 -1.15 0 -1.30 -0.20 -1.30 -1.75z"/>
  <path d="M289 127.25 c0 -1.05 0.15 -1.15 1.15 -0.80 0.85 0.35 1.35 0.20 2.25 -0.60 l1.10 -1 0 1.80 0 1.85 -2.25 0 c-2.05 0 -2.25 -0.10 -2.25 -1.25z"/>
  <path d="M226.50 80.50 c0 -0.65 0.35 -1 1 -1 0.65 0 1 0.35 1 1 0 0.65 -0.35 1 -1 1 -0.65 0 -1 -0.35 -1 -1z"/>
  <path d="M323.50 80.50 c0 -0.25 0.35 -0.50 0.75 -0.50 0.50 0 0.75 -0.50 0.75 -1.50 0 -1 -0.25 -1.50 -0.75 -1.50 -0.40 0 -0.75 -0.35 -0.75 -0.80 0 -0.55 0.40 -0.70 1.35 -0.60 1.10 0.10 1.45 0.50 1.80 2.05 0.25 1 0.30 2.20 0.15 2.60 -0.30 0.85 -3.30 1.05 -3.30 0.25z"/>
  <path d="M331 79.50 c0 -0.65 0.35 -1 1 -1 0.65 0 1 0.35 1 1 0 0.65 -0.35 1 -1 1 -0.65 0 -1 -0.35 -1 -1z"/>
  <path d="M340.35 80.15 c-0.75 -0.75 -0.35 -2.15 0.65 -2.15 0.75 0 1 0.35 1 1.25 0 1.20 -0.90 1.70 -1.65 0.90z"/>
  <path d="M348.90 76.90 c0.70 -1.25 1.35 -1.70 2.50 -1.80 1.35 -0.15 1.60 0 1.60 0.85 0 0.70 -0.30 1.05 -1 1.05 -0.55 0 -1 0.35 -1 0.75 0 0.50 -0.50 0.75 -1.50 0.75 l-1.50 0 0.90 -1.60z"/>
  <path d="M188.30 76.60 c-0.15 -0.25 -0.25 -2.25 -0.25 -4.50 0 -3.70 0.10 -4.10 1 -4.10 0.50 0 0.95 -0.35 0.95 -0.75 0 -0.65 2.20 -0.75 16.90 -0.75 9.25 0 17.15 0.20 17.50 0.45 0.40 0.25 0.60 1.15 0.50 2.35 -0.15 1.90 -0.20 1.95 -2.25 2.10 -1.60 0.10 -2.15 0 -2.15 -0.55 0 -0.40 0.55 -0.90 1.25 -1.05 0.70 -0.20 1.25 -0.55 1.25 -0.80 0 -0.30 -5.85 -0.55 -15.75 -0.60 -8.65 -0.05 -16.10 -0.10 -16.60 -0.10 -1.25 -0.05 -1.40 1.20 -0.20 1.55 0.60 0.15 1.05 0.60 1.05 0.95 0 0.40 0.35 0.70 0.75 0.70 0.40 0 0.75 0.45 0.75 0.95 0 0.75 -0.40 1.05 -1.60 1.15 -0.90 0.10 -1.65 0.40 -1.65 0.65 0 0.30 5.95 0.55 16.65 0.65 14.55 0.10 16.60 0 16.60 -0.65 0 -0.40 -0.35 -0.75 -0.75 -0.75 -0.40 0 -0.75 -0.35 -0.75 -0.75 0 -0.50 0.55 -0.75 1.75 -0.75 1.75 0 1.75 0 1.75 2.20 0 1.85 -0.20 2.25 -1.10 2.50 -1.75 0.45 -35.30 0.35 -35.60 -0.10z"/>
  <path d="M322.40 71.70 c-0.15 -0.15 -0.20 -0.70 -0.05 -1.25 0.40 -1.40 1.65 -1.20 1.65 0.30 0 1.15 -0.90 1.70 -1.60 0.95z"/>
  <path d="M322.50 67.50 c0 -0.65 0.35 -1 1 -1 0.65 0 1 0.35 1 1 0 0.65 -0.35 1 -1 1 -0.65 0 -1 -0.35 -1 -1z"/>
  <path d="M322.45 62.30 c0 -0.15 -0.05 -1.25 -0.05 -2.40 -0.05 -1.60 0.15 -2.20 0.75 -2.30 0.60 -0.15 0.85 0.20 0.85 1.05 0 0.70 0.20 1.35 0.45 1.45 0.25 0.10 0.55 0.60 0.65 1.15 0.10 0.75 -0.15 1.05 -1.20 1.15 -0.80 0.10 -1.40 0.05 -1.45 -0.10z"/>
  <path d="M352.50 61.25 c0 -1.50 1.25 -1.70 1.65 -0.30 0.25 1.10 0 1.55 -1 1.55 -0.35 0 -0.65 -0.55 -0.65 -1.25z"/>
  <path d="M324.50 48.75 c0 -1.75 1.45 -1.50 2.15 0.40 0.25 0.65 0.05 0.85 -0.90 0.85 -1 0 -1.25 -0.25 -1.25 -1.25z"/>
  <path d="M350 48.50 c0.30 -0.55 1 -1 1.50 -1 0.65 0 1 0.35 1 1 0 0.80 -0.35 1 -1.50 1 -1.40 0 -1.50 -0.10 -1 -1z"/>
  <path d="M404.50 39.90 c-1.90 -1 -2.55 -2.75 -2.35 -6.10 0.25 -4.10 1.65 -5.30 6.05 -5.30 2.75 0 3.25 0.15 4.45 1.40 1.15 1.20 1.35 1.80 1.35 4.45 0 4.30 -1.15 5.55 -5.25 5.95 -2 0.15 -3.40 0.05 -4.25 -0.40z"/>
  <path d="M391.60 26.65 c1.75 -3.70 2.40 -4.05 2.40 -1.40 0 1.55 -0.15 1.75 -1.30 1.75 -0.70 0 -1.20 -0.15 -1.10 -0.35z"/>
 </g>
 <g fill="#d6e0bc">
  <path d="M225.15 209.50 c-2.10 -0.85 -2 -3.70 0.20 -4.55 0.75 -0.30 25.25 -0.45 61.30 -0.45 33.05 0 60.40 0 60.75 0 0.50 0 0.40 -0.40 -0.30 -1.35 -1 -1.45 -2.10 -4.30 -2.10 -5.45 0 -0.40 0.45 -0.70 1 -0.70 0.80 0 1 0.35 1 1.50 0 0.85 0.25 1.50 0.50 1.50 0.30 0 0.50 0.35 0.50 0.75 0 0.40 0.25 0.75 0.50 0.75 0.30 0 0.50 0.30 0.50 0.70 0 0.40 0.35 0.80 0.75 1 0.45 0.15 0.75 0.90 0.75 1.90 l0 1.65 -61.10 -0.15 c-33.65 -0.05 -61.65 0 -62.30 0.15 -0.65 0.15 -1 0.50 -0.85 0.75 0.45 0.70 184.10 0.70 184.50 0 0.20 -0.30 -0.35 -0.50 -1.25 -0.50 -1.50 0 -1.55 -0.05 -1.40 -2.10 0.10 -1.80 0.35 -2.20 1.30 -2.30 0.85 -0.15 1.10 -0.50 1.10 -1.65 0 -0.80 0.25 -1.45 0.50 -1.45 0.30 0 0.50 -0.80 0.50 -1.75 l0 -1.75 -32.50 0 -32.50 0 0 -55.50 c0 -49 -0.10 -55.50 -0.75 -55.50 -0.40 0 -0.75 -0.35 -0.75 -0.75 0 -1.15 1.95 -5.05 3.05 -6.05 0.90 -0.85 0.95 -0.80 0.95 0.95 0 1.05 -0.20 1.85 -0.50 1.85 -0.25 0 -0.50 0.35 -0.50 0.75 0 0.40 -0.20 0.75 -0.50 0.75 -0.25 0 -0.50 0.45 -0.50 1 0 1 0.35 1 32.25 1 l32.25 0 -0.90 -1.80 c-0.90 -1.90 -3.85 -5.20 -4.65 -5.20 -0.25 0 -0.45 -0.55 -0.45 -1.25 0 -0.95 0.20 -1.15 0.90 -0.90 3.10 1.10 6.30 5.25 6.90 9.05 0.30 1.90 0.25 2.10 -0.75 2.10 l-1.05 0 0 54.75 c0 54.40 0 54.75 1 54.75 0.55 0 1 0.30 1 0.65 0 1.35 -1.15 4.70 -2.10 6 -1.10 1.50 -1.05 1.70 0.70 2.55 1.25 0.60 1.70 2.60 0.90 3.80 -0.40 0.65 -11.45 0.75 -93.60 0.85 -52.40 0.05 -93.60 -0.10 -94.25 -0.35z m146.10 -69.25 l0 -33 -7.25 0 -7.25 0 0.10 2.75 c0 1.50 0.05 16.40 0.10 33.15 l0.05 30.40 7.15 -0.15 7.10 -0.15 0 -33z m31 16 l0 -10.50 -10.35 -0.15 c-8.15 -0.10 -10.40 0 -10.45 0.50 0 0.35 0 5.05 0 10.40 l0 9.75 9.65 0.25 c5.30 0.15 10 0.30 10.40 0.25 0.65 0 0.75 -1.55 0.75 -10.50z m0.15 -32.80 l0.10 -10.35 -3.65 -0.30 c-2 -0.20 -6.70 -0.30 -10.50 -0.20 l-6.80 0.15 -0.15 10 c-0.10 5.50 0.05 10.30 0.30 10.65 0.35 0.45 2.80 0.60 10.50 0.50 l10.05 -0.15 0.15 -10.30z"/>
  <path d="M233.50 126.50 c0 -0.60 1.65 -1.50 2.70 -1.50 0.45 0 0.80 0.45 0.80 1 0 0.80 -0.35 1 -1.75 1 -0.95 0 -1.75 -0.20 -1.75 -0.50z"/>
  <path d="M244.50 123.30 c0 -0.65 1.40 -1.30 2.90 -1.30 0.30 0 0.60 0.45 0.60 1 0 0.80 -0.35 1 -1.75 1 -1.15 0 -1.75 -0.25 -1.75 -0.70z"/>
  <path d="M274.50 123 c0 -1.05 0.50 -1.20 2.40 -0.70 1.80 0.50 1.35 1.70 -0.65 1.70 -1.40 0 -1.75 -0.20 -1.75 -1z"/>
  <path d="M268.05 110.85 c-1.60 -2.60 -3.70 -2.95 -5.70 -0.95 l-1.50 1.55 -2.45 -1.25 c-2.35 -1.20 -2.40 -1.25 -2.30 -3.45 0.10 -2.75 -0.90 -3.70 -3.95 -3.75 l-2.10 0 -0.90 -2.80 c-0.85 -2.70 -0.85 -2.80 0.05 -3.30 2.95 -1.65 3.60 -4 1.55 -5.90 -1.50 -1.45 -1.55 -1.95 -0.20 -4.60 1 -1.95 1.10 -2 3.10 -1.75 1.35 0.20 2.40 0.05 3 -0.35 1.10 -0.85 1.15 -4.05 0.10 -4.50 -0.70 -0.25 -4.25 -7.05 -4.25 -8.15 0 -0.30 1.10 -1.50 2.45 -2.75 2.40 -2.20 2.45 -2.35 2.20 -4.45 -0.25 -2.20 -0.50 -2.50 -4.80 -6 -1 -0.75 -0.95 -0.80 0.35 -4.25 2 -5.25 1.70 -4.95 5.40 -4.80 2.90 0.20 3.50 0.05 5.40 -1.20 l2.10 -1.40 -0.30 -3.60 -0.35 -3.55 3.60 -1.55 c1.95 -0.90 3.90 -1.60 4.30 -1.60 0.40 0 1.75 1.10 3.05 2.50 2.30 2.40 2.40 2.50 4.50 2.15 1.85 -0.25 2.45 -0.65 4 -2.70 1.05 -1.30 2.15 -2.40 2.45 -2.40 0.60 -0.05 7.10 2.35 7.65 2.80 0.10 0.10 0.15 1.75 0.10 3.65 -0.15 3.35 -0.10 3.50 1.50 5 1.55 1.45 1.80 1.50 4.65 1.25 1.65 -0.20 3.15 -0.35 3.40 -0.40 0.20 -0.05 1.20 1.80 2.20 4.10 l1.85 4.20 -2.65 2.30 c-2.60 2.30 -2.60 2.30 -2.25 4.55 0.35 2.25 1.45 3.65 4.45 5.80 l1.45 1.05 -1.65 4.30 c-1.80 4.60 -2.05 4.80 -4.90 4.05 -1.65 -0.45 -1.45 -1.70 0.30 -1.70 1.25 0 1.55 -0.30 2.45 -2.75 1.10 -2.85 1 -4.25 -0.20 -4.25 -0.40 0 -0.70 -0.35 -0.70 -0.75 0 -0.40 -0.45 -0.75 -1 -0.75 -0.65 0 -1.10 -0.45 -1.30 -1.35 -0.15 -0.80 -0.50 -2.05 -0.75 -2.85 -0.25 -0.80 -0.45 -2.10 -0.45 -2.85 0 -1.30 0.20 -1.45 1.50 -1.45 1.35 0 1.50 -0.15 1.50 -1.50 0 -0.90 0.30 -1.65 0.75 -1.80 0.80 -0.35 1.05 -2.70 0.30 -2.70 -0.25 0 -0.75 -0.80 -1.10 -1.75 l-0.65 -1.75 -3.55 0.30 -3.50 0.30 -1.90 -2.10 c-1.90 -2 -1.95 -2.15 -1.75 -5.35 l0.15 -3.25 -2.60 -1 c-2.60 -0.95 -2.60 -0.95 -3.60 0.05 -0.60 0.60 -1.05 1.25 -1.05 1.45 0 1.20 -2 2.05 -5.50 2.40 l-3.80 0.30 -1.45 -1.90 c-0.85 -1.05 -1.65 -2.10 -1.80 -2.35 -0.20 -0.30 -1.50 0 -3.10 0.65 l-2.75 1.15 0.25 3.60 0.30 3.55 -2.20 1.60 c-1.95 1.45 -2.50 1.60 -5.75 1.60 l-3.60 0 -0.85 2.55 -0.85 2.55 2.20 2.10 c2.20 2 2.30 2.20 2.60 5.80 l0.40 3.70 -2.30 2.05 -2.25 2 1.20 2.65 c0.75 1.65 1.65 2.80 2.25 2.95 0.90 0.25 1 0.70 1 3.65 0 4.25 -0.60 5 -4 5 -2 0 -2.55 0.20 -3.05 1.05 -0.45 0.85 -0.35 1.25 0.50 2.15 1.45 1.55 1.35 6.80 -0.15 6.80 -0.80 0 -1.75 2.30 -1.45 3.50 0.20 0.80 0.70 1 2.35 1 2.75 0 4.30 1.65 4.30 4.50 0 1.50 0.25 2.10 1.05 2.55 0.85 0.45 1.25 0.35 2.15 -0.50 0.60 -0.60 1.75 -1.05 2.60 -1.05 1.80 0 5.20 0.90 5.20 1.40 0.05 1.05 1.50 2.15 2.45 1.85 0.85 -0.25 1.05 -0.75 1.05 -2.65 0 -3.45 1 -4.60 3.95 -4.60 2 0 2.45 -0.20 2.90 -1.15 0.45 -0.90 0.35 -1.40 -0.45 -2.35 -1.45 -1.80 -1.05 -6 0.70 -7.65 1 -0.95 1.20 -1.50 1 -3.05 -0.25 -2.20 0.30 -2.80 2.70 -2.80 1.40 0 3.20 1.25 3.20 2.25 0 1.60 3.90 1.90 5.40 0.40 0.35 -0.35 1 -0.65 1.40 -0.65 0.45 0 0.70 -0.55 0.70 -1.50 0 -1.80 1.25 -2.05 1.70 -0.35 0.65 2.50 0.40 2.85 -3.50 4.60 -2.10 0.95 -4.10 1.75 -4.45 1.75 -0.30 0 -1.55 -1.10 -2.70 -2.50 -2.35 -2.80 -3.50 -3.30 -2.30 -1 1.05 2.05 0.95 2.85 -0.60 3.85 -0.80 0.50 -1.55 1.10 -1.75 1.40 -0.80 1.05 -0.35 3.10 0.85 4.25 1.50 1.45 1.55 1.95 0.20 4.60 -1 2 -1.05 2 -3.20 1.75 -2.85 -0.40 -3.75 0.55 -3.75 4.10 0 2.35 -0.10 2.60 -1.35 3.10 -3.30 1.25 -3.95 1.15 -5.10 -0.70z"/>
  <path d="M260.90 103.20 c-0.80 -0.40 -1.40 -1.05 -1.40 -1.45 0 -0.40 -0.35 -0.75 -0.75 -0.75 -2.20 0 -3.15 -8.55 -1.30 -12 1.45 -2.80 3.65 -4 7.35 -4 l3.15 0 0.15 2.10 0.15 2.10 3.70 1.25 3.70 1.25 -0.30 3.65 c-0.30 4.10 -1.60 6.50 -4.35 7.90 -1.90 1 -8.25 0.95 -10.10 -0.05z m9.10 -2.15 c1.90 -1.35 3.50 -4 3.50 -5.80 0 -1.55 -0.15 -1.70 -3.95 -3.25 -3.90 -1.55 -4 -1.65 -4.15 -3.40 -0.15 -1.65 -0.30 -1.85 -1.40 -1.70 -1.75 0.15 -3.55 1.60 -4.85 3.90 -1.25 2.20 -1.35 3.15 -0.65 5.80 1.35 4.85 7.60 7.25 11.50 4.45z"/>
  <path d="M293.50 82.25 c0 -1.40 0.20 -1.75 1 -1.75 0.65 0 1 -0.35 1 -0.90 0 -0.55 0.40 -1.30 0.90 -1.75 1.20 -1.10 4.10 -1.15 4.10 -0.10 0 0.40 -0.25 0.75 -0.55 0.75 -1.15 0 -4.45 3.20 -4.45 4.35 0 0.80 -0.30 1.15 -1 1.15 -0.80 0 -1 -0.35 -1 -1.75z"/>
  <path d="M274.50 81.05 c-2 -0.65 -4.50 -2.05 -4.50 -2.55 0 -0.30 -0.30 -0.50 -0.70 -0.50 -1 0 -4 -3.75 -5.05 -6.25 -0.45 -1.10 -0.95 -3.85 -1.10 -6.10 -0.25 -3.40 -0.10 -4.65 0.80 -7.55 2.05 -6.25 7.65 -11.10 12.95 -11.10 2.60 0 2.95 1.25 0.50 1.75 -2.90 0.65 -6.20 2.65 -8.30 5.05 -6.65 7.50 -4.80 19 3.85 24.10 2.05 1.20 2.80 1.35 6.80 1.35 5.40 0 7.85 -0.95 11.15 -4.30 3.10 -3.15 4.20 -5.55 4.50 -9.75 0.50 -7.85 -4.15 -14.45 -11.40 -16.20 -2.75 -0.65 -3.50 -2 -1.10 -2 1.85 0 6.60 1.40 6.60 1.95 0 0.25 0.45 0.55 1 0.70 0.70 0.15 1 0.70 1 1.55 0 1.05 0.25 1.30 1.30 1.30 0.85 0 1.40 0.30 1.55 1 0.15 0.55 0.45 1 0.65 1 0.20 0 0.80 1.05 1.30 2.40 1.70 4.30 1.05 14.15 -1.05 16.30 -0.40 0.40 -0.75 0.90 -0.75 1.15 0 0.60 -3.80 4.15 -4.45 4.15 -0.30 0 -0.55 0.20 -0.55 0.50 0 0.25 -1.50 0.90 -3.30 1.50 -3.35 1 -9.20 1.30 -11.70 0.55z"/>
  <path d="M321 80.50 c0 -1.10 0.05 -1.15 1.20 -0.70 1.15 0.45 1 1.70 -0.20 1.70 -0.65 0 -1 -0.35 -1 -1z"/>
  <path d="M186.50 77.25 c0 -1.90 0.15 -2.25 1 -2.25 0.85 0 1 0.35 1 2.25 0 1.90 -0.15 2.25 -1 2.25 -0.85 0 -1 -0.35 -1 -2.25z"/>
  <path d="M350 76.05 c0 -0.60 0.35 -0.95 0.90 -0.95 0.45 0.05 1.70 -0.15 2.75 -0.35 1.65 -0.30 1.85 -0.25 1.85 0.65 0 0.70 -0.45 1.05 -1.55 1.30 -2.85 0.55 -3.95 0.40 -3.95 -0.65z"/>
  <path d="M330.50 71.50 c0 -0.75 0.35 -1 1.25 -1 0.90 0 1.25 0.25 1.25 1 0 0.75 -0.35 1 -1.25 1 -0.90 0 -1.25 -0.25 -1.25 -1z"/>
  <path d="M337 71.50 c0 -0.85 0.35 -1 2.25 -1 1.90 0 2.25 0.15 2.25 1 0 0.85 -0.35 1 -2.25 1 -1.90 0 -2.25 -0.15 -2.25 -1z"/>
  <path d="M186.50 65.25 c0 -1.40 0.20 -1.75 1 -1.75 0.80 0 1 0.35 1 1.75 0 1.40 -0.20 1.75 -1 1.75 -0.80 0 -1 -0.35 -1 -1.75z"/>
  <path d="M397.50 57.75 c0 -1.40 0.20 -1.75 1 -1.75 0.80 0 1 0.35 1 1.75 0 1.40 -0.20 1.75 -1 1.75 -0.80 0 -1 -0.35 -1 -1.75z"/>
  <path d="M331 49.45 c0 -0.90 0.25 -1 2.35 -0.85 1.80 0.10 2.45 0.40 2.55 1.05 0.15 0.70 -0.25 0.85 -2.35 0.85 -2.25 0 -2.55 -0.10 -2.55 -1.05z"/>
  <path d="M340.20 49.70 c0.15 -0.45 0.30 -0.90 0.30 -1 0 -0.10 0.45 -0.20 1 -0.20 0.65 0 1 0.35 1 1 0 0.75 -0.35 1 -1.30 1 -1 0 -1.25 -0.20 -1 -0.80z"/>
  <path d="M321.60 48.65 c0.10 -0.45 0.65 -0.90 1.30 -0.95 0.80 -0.15 1.10 0.05 1.10 0.80 0 0.75 -0.35 1 -1.30 1 -0.90 0 -1.25 -0.25 -1.10 -0.85z"/>
  <path d="M206.75 46.05 c-0.70 -0.25 -1.10 -1 -1.25 -2.35 -0.25 -1.80 -0.40 -1.95 -1.90 -2.10 -1.30 -0.15 -1.80 -0.50 -2.45 -1.85 -0.75 -1.60 -0.75 -1.80 0 -2.65 1.05 -1.15 1.10 -2.30 0.10 -3.10 -1.70 -1.40 -0.55 -4.35 1.70 -4.40 2.05 -0.05 2.70 -0.50 2.35 -1.75 -0.55 -2.20 2.75 -3.85 4.20 -2.10 0.85 1 1.60 0.95 3.15 -0.25 1.10 -0.85 1.45 -0.90 2.55 -0.45 0.90 0.45 1.30 1 1.30 1.90 0 1.90 0.55 2.45 2.45 2.65 1.35 0.10 1.80 0.45 2.20 1.55 0.35 1.10 0.25 1.60 -0.35 2.30 -1.05 1.20 -1 2 0.25 3.35 0.95 1.05 1 1.30 0.45 2.70 -0.50 1.15 -0.95 1.50 -2 1.50 -1.45 0 -2.60 1 -2.45 2.10 0.15 1.40 -0.10 1.80 -1.55 2.40 -1.25 0.55 -1.60 0.45 -2.80 -0.45 -1 -0.80 -1.50 -0.90 -2.30 -0.50 -0.50 0.30 -1.10 0.85 -1.25 1.25 -0.30 0.75 -0.90 0.85 -2.40 0.25z m8.05 -6.75 c1.45 -1.45 1.70 -2.05 1.70 -3.95 0 -2.70 -1.30 -4.55 -3.75 -5.35 -3.75 -1.25 -7.25 1.50 -7.25 5.70 0 1.50 0.35 2.25 1.70 3.60 1.40 1.40 2.10 1.70 3.80 1.70 1.70 0 2.40 -0.30 3.80 -1.70z"/>
  <path d="M421.50 44.90 c0 -1.70 0.15 -1.90 1.25 -1.90 1.55 0 1.60 0.55 0 2.35 l-1.20 1.40 -0.05 -1.85z"/>
  <path d="M180.90 33.15 c-1.75 -0.70 -1.90 -0.90 -1.80 -2.70 0.10 -2.45 -0.80 -3.55 -2.80 -3.35 -1.35 0.15 -1.65 -0.10 -2.75 -2.05 l-1.20 -2.20 1.30 -0.95 c1.70 -1.25 1.75 -3 0.10 -4.30 -1.45 -1.15 -1.55 -2.05 -0.50 -4.10 0.65 -1.25 1.05 -1.45 2.50 -1.40 2.30 0.10 3.65 -1.15 3.35 -3.05 -0.20 -1.30 0.05 -1.60 1.80 -2.50 l1.95 -1 1.15 1.20 c1.50 1.60 2.85 1.60 4.55 -0.05 1.30 -1.20 1.40 -1.25 3.15 -0.50 1.60 0.65 1.80 0.95 1.80 2.50 0 2.30 1.05 3.30 3.15 2.95 1.50 -0.20 1.70 -0.10 2.50 1.60 0.95 1.95 0.80 3.50 -0.40 3.95 -1.20 0.45 -0.85 2.75 0.60 4.10 1.30 1.20 1.35 1.30 0.65 3.35 -0.70 1.90 -0.90 2.05 -2.60 2.15 -2.50 0.05 -3.50 0.95 -3.30 3.05 0.15 1.55 0 1.75 -1.95 2.60 l-2.05 0.95 -1.15 -1.20 c-1.55 -1.65 -3.15 -1.55 -4.55 0.30 -1.25 1.70 -1.05 1.70 -3.50 0.65z m2.35 -3.15 c1.05 -1.15 1 -1.25 -0.85 -1.70 -1.25 -0.30 -1.40 -0.15 -1.40 0.85 0 2.05 0.85 2.40 2.25 0.85z m8.45 0.20 c0.45 -0.15 0.80 -0.85 0.80 -1.55 0 -1 -0.20 -1.20 -0.85 -0.90 -0.50 0.20 -1.40 0.50 -2 0.60 l-1.10 0.25 1.10 0.95 c1.30 1.10 1.10 1 2.05 0.65z m-2.35 -4 c3.95 -1.90 5.50 -6.10 3.65 -9.95 -2.65 -5.50 -10.25 -5.65 -13 -0.20 -1.55 3 -1.15 5.90 1.15 8.40 2.25 2.45 5.30 3.10 8.20 1.75z m-11.70 -2.80 c-0.40 -2.15 -0.40 -2.15 -1.35 -0.65 -0.95 1.45 -0.70 2.25 0.70 2.25 0.85 0 0.95 -0.25 0.65 -1.60z m20.05 0.80 c0.20 -0.50 -0.05 -1.10 -0.50 -1.45 -1.30 -0.90 -1.65 -6.20 -0.45 -7.05 1.10 -0.80 0.55 -1.70 -1.05 -1.70 -1.05 0 -1.15 0.15 -0.70 0.95 0.25 0.55 0.50 2.60 0.50 4.55 0 1.95 -0.25 4 -0.50 4.55 -0.45 0.85 -0.35 0.95 0.95 0.95 0.85 0 1.55 -0.30 1.75 -0.80z m-20 -9.05 c0.30 -1 0.20 -1.15 -0.90 -1.15 -1.70 0 -2.05 0.75 -0.95 2.20 0.95 1.25 1.20 1.10 1.85 -1.05z m5.75 -4.95 c0.15 -0.15 -0.10 -0.60 -0.55 -1 -0.95 -0.95 -1.90 -0.55 -1.90 0.85 0 0.80 0.20 0.95 1.15 0.65 0.60 -0.15 1.20 -0.40 1.30 -0.50z m8.05 -0.45 c0 -1.40 -1.05 -1.65 -2 -0.50 -0.50 0.60 -0.40 0.80 0.55 1.20 0.65 0.25 1.25 0.50 1.35 0.50 0.05 0.05 0.10 -0.50 0.10 -1.20z"/>
 </g>
 <g fill="#b8ebba">
  <path d="M189.50 184.75 c0 -2.80 2.70 -13.80 4.55 -18.50 1.05 -2.75 3.05 -6.95 4.35 -9.30 2.40 -4.20 7.35 -11.20 8.90 -12.50 0.70 -0.55 0.75 -0.40 0.60 1.35 -0.10 1.60 -0.35 2 -1.25 2.10 -0.85 0.15 -1.15 0.50 -1.15 1.40 0 0.65 -0.20 1.20 -0.50 1.20 -0.25 0 -0.50 0.35 -0.50 0.75 0 0.40 -0.35 0.75 -0.75 0.75 -0.40 0 -0.75 0.45 -0.75 1 0 0.55 -0.20 1 -0.45 1 -0.25 0 -0.60 0.55 -0.75 1.25 -0.20 0.70 -0.65 1.25 -1.05 1.25 -0.40 0 -0.75 0.45 -0.75 0.95 0 1.50 -0.55 2.55 -1.30 2.55 -0.40 0 -0.70 0.50 -0.70 1.25 0 1.40 -1 3.75 -1.60 3.75 -0.20 0 -0.40 0.45 -0.40 1 0 0.50 -0.45 2.15 -1.05 3.60 -1.25 3.15 -3.45 12.70 -3.45 14.85 0 1.20 -0.20 1.55 -1 1.55 -0.75 0 -1 -0.35 -1 -1.25z"/>
  <path d="M330.80 183.40 c-0.20 -1.45 -0.80 -4.35 -1.35 -6.50 -0.50 -2.10 -0.95 -4.25 -0.95 -4.80 0 -0.55 -0.20 -1.10 -0.50 -1.20 -0.25 -0.05 -0.75 -1.35 -1.10 -2.75 -0.35 -1.45 -0.80 -2.65 -1 -2.65 -0.25 0 -0.40 -0.80 -0.40 -1.80 0 -6.80 5.70 8.90 7.25 19.95 0.30 2.10 0.20 2.35 -0.65 2.35 -0.80 0 -1.05 -0.50 -1.30 -2.60z"/>
  <path d="M225 166.50 c0 -0.25 -0.40 -0.50 -0.90 -0.50 -1.15 0 -2.10 -0.95 -2.10 -2.10 0 -0.50 -0.20 -0.90 -0.50 -0.90 -0.55 0 -0.70 -5.90 -0.20 -7.20 0.15 -0.45 0.75 -0.80 1.25 -0.80 0.60 0 0.95 -0.35 0.95 -1 0 -1.30 3.15 -2.25 6.20 -1.80 2 0.30 2.30 0.50 2.30 1.60 0 1 0.25 1.20 1.50 1.20 1.30 0 1.50 0.25 2 2.10 0.90 3.20 0.20 6.30 -1.75 8.25 -1.55 1.55 -1.85 1.65 -5.20 1.65 -2.05 0 -3.55 -0.20 -3.55 -0.50z m7.40 -3.25 c1.90 -2.05 2.10 -4.20 0.60 -6.65 -3.15 -5.20 -11.40 -1.85 -10.30 4.15 0.30 1.50 2.25 3.80 3.80 4.40 1.70 0.70 4.25 -0.10 5.90 -1.90z"/>
  <path d="M289.20 166.05 c-0.85 -0.55 -1.80 -1.70 -2.15 -2.60 -0.65 -1.95 -0.75 -6.95 -0.10 -6.95 0.25 0 0.55 -0.50 0.65 -1.05 0.10 -0.60 0.60 -1.35 1.15 -1.65 0.55 -0.30 1.15 -0.75 1.30 -0.95 0.15 -0.20 1.50 -0.55 3 -0.70 6.15 -0.60 9.20 2.95 8.25 9.55 -0.30 2 -0.50 2.30 -1.60 2.30 -0.95 0 -1.20 0.25 -1.20 1.20 0 1.50 -0.80 1.80 -4.65 1.80 -2.15 0 -3.55 -0.30 -4.65 -0.95z m7 -1.25 c2.25 -0.95 3.30 -2.60 3.30 -5.20 0 -1.85 -0.30 -2.50 -1.70 -3.90 -1.40 -1.40 -2.10 -1.70 -3.75 -1.70 -2.45 0 -5.25 2.20 -5.75 4.55 -0.40 2.10 0.80 4.75 2.80 5.95 1.95 1.20 2.85 1.25 5.10 0.30z"/>
  <path d="M321.95 157.75 c-0.35 -0.95 -0.85 -1.75 -1.05 -1.75 -0.20 0 -0.40 -0.35 -0.40 -0.75 0 -0.40 -0.20 -0.75 -0.50 -0.75 -0.25 0 -0.50 -0.35 -0.50 -0.75 0 -0.40 -0.20 -0.75 -0.50 -0.75 -0.25 0 -0.50 -0.35 -0.50 -0.75 0 -0.40 -0.20 -0.75 -0.50 -0.75 -0.25 0 -0.50 -0.30 -0.50 -0.70 0 -0.40 -0.35 -0.80 -0.75 -1 -0.40 -0.15 -0.75 -0.80 -0.75 -1.50 0 -0.90 -0.30 -1.25 -1.10 -1.40 -0.95 -0.10 -1.15 -0.50 -1.30 -2.15 l-0.10 -2 2.05 2.25 c3.05 3.35 9.45 13 9.45 14.25 0 0.15 -0.55 0.25 -1.20 0.25 -0.95 0 -1.40 -0.40 -1.85 -1.75z"/>
  <path d="M307.60 140.40 c-0.35 -0.35 -0.60 -0.90 -0.60 -1.25 0 -0.35 -0.35 -0.65 -0.75 -0.65 -0.40 0 -1.15 -0.40 -1.65 -0.90 -0.50 -0.50 -1.30 -1.05 -1.75 -1.25 -0.45 -0.15 -0.85 -0.55 -0.85 -0.85 0 -0.25 -0.35 -0.50 -0.75 -0.50 -0.40 0 -0.75 -0.20 -0.75 -0.50 0 -0.25 -0.30 -0.50 -0.70 -0.50 -0.40 0 -0.80 -0.15 -0.90 -0.35 -0.05 -0.25 -1 -0.80 -2 -1.25 -1.55 -0.70 -1.90 -1.15 -1.90 -2.25 0 -1.85 0.95 -5.15 1.45 -5.15 0.25 0 0.60 -0.55 0.75 -1.25 0.20 -0.70 0.65 -1.25 1.05 -1.25 0.45 0 0.75 -0.50 0.75 -1.20 0 -0.70 0.30 -1.55 0.70 -1.90 0.35 -0.40 0.85 -1.20 1 -1.80 0.20 -0.60 0.55 -1.10 0.75 -1.10 0.20 0 0.65 -0.80 1 -1.75 0.35 -0.95 0.80 -1.75 1 -1.75 0.20 0 0.65 -0.80 1 -1.75 0.35 -0.95 0.85 -1.75 1.10 -1.75 0.60 0 0.60 -1.85 -0.05 -2.25 -0.25 -0.15 -0.50 0.05 -0.50 0.55 0 0.90 -1.95 4.35 -2.60 4.60 -0.20 0.10 -0.40 0.40 -0.40 0.70 0 1 -6.75 12.40 -7.35 12.40 -0.35 0 -0.65 0.55 -0.65 1.20 0 1.10 -0.30 1.30 -2.20 1.55 -1.75 0.30 -2.90 0.10 -5.60 -1 -4.30 -1.75 -11.80 -3.65 -15.95 -4.05 -2.80 -0.30 -3.25 -0.50 -3.25 -1.35 0 -0.90 0.25 -0.95 2.90 -0.60 4.85 0.55 12.10 2.30 16.35 3.85 2.20 0.80 4.35 1.55 4.75 1.70 0.55 0.15 2.30 -2.50 6.45 -9.80 3.15 -5.50 6.25 -10.50 6.90 -11.10 1.10 -1.05 1.30 -1.05 2.55 -0.35 0.75 0.40 1.40 1.25 1.50 1.85 0.10 0.70 -2 4.75 -5.75 11.20 -3.25 5.55 -5.95 10.25 -6.05 10.45 -0.05 0.15 2.05 1.80 4.75 3.60 2.70 1.75 6.15 4.40 7.65 5.80 l2.75 2.50 -1.75 0.05 c-1 0 -2.05 -0.25 -2.40 -0.60z"/>
  <path d="M214 137.95 c1.50 -1.40 4.70 -3.85 7.15 -5.50 2.40 -1.65 4.35 -3.25 4.35 -3.55 0 -0.25 -0.40 -1.10 -0.95 -1.80 -1.95 -2.80 -10.55 -18.15 -10.55 -18.85 0 -0.40 0.45 -0.75 1 -0.75 0.55 0 1 0.30 1 0.70 0 0.40 0.20 0.80 0.40 0.90 0.55 0.20 5.60 9.10 5.60 9.85 0 0.30 0.20 0.55 0.45 0.55 0.25 0 0.75 0.75 1.10 1.65 0.35 0.85 0.95 1.90 1.30 2.25 0.35 0.35 0.65 1 0.65 1.40 0 0.40 0.25 0.70 0.50 0.70 0.30 0 0.50 0.45 0.50 1 0 0.55 0.25 1 0.55 1 0.30 0 0.45 0.80 0.35 1.85 -0.10 1.50 -0.45 2 -1.65 2.65 -0.80 0.40 -1.55 0.90 -1.65 1.15 -0.10 0.20 -0.50 0.35 -0.90 0.35 -0.40 0 -0.70 0.25 -0.70 0.50 0 0.30 -0.35 0.50 -0.75 0.50 -0.40 0 -0.75 0.25 -0.75 0.50 0 0.30 -0.45 0.50 -1 0.50 -0.55 0 -1 0.35 -1 0.75 0 0.45 -0.45 0.75 -1.25 0.75 -0.90 0 -1.25 0.25 -1.25 0.90 0 1.45 -1.65 2.60 -3.55 2.60 l-1.70 -0.05 2.75 -2.50z"/>
  <path d="M227.95 126.75 c-0.35 -0.95 -0.80 -1.75 -1 -1.75 -0.20 0 -0.65 -0.75 -1 -1.60 -0.35 -0.90 -0.95 -1.95 -1.30 -2.30 -0.35 -0.35 -0.65 -1 -0.65 -1.40 0 -0.40 -0.20 -0.70 -0.45 -0.70 -0.25 0 -0.75 -0.75 -1.10 -1.60 -0.35 -0.90 -0.95 -1.95 -1.30 -2.30 -0.35 -0.35 -0.65 -1.20 -0.65 -1.90 0 -0.70 -0.30 -1.20 -0.70 -1.20 -0.75 0 -1.30 -1.05 -1.30 -2.55 0 -0.50 -0.35 -0.95 -0.75 -0.95 -0.40 0 -0.75 -0.35 -0.75 -0.75 0 -0.50 -0.50 -0.75 -1.60 -0.75 -1.50 0 -1.55 0 -0.65 -1 1.10 -1.25 2.35 -1.30 3.35 -0.10 0.40 0.45 3.40 5.40 6.65 11 4.65 8 6.05 10.10 6.70 9.80 2.80 -1.15 10.95 -3.75 12.60 -4 1.70 -0.30 1.95 -0.20 1.95 0.65 0 0.75 -0.65 1.15 -3.35 1.85 -1.90 0.45 -4.05 1 -4.90 1.15 -0.80 0.15 -1.60 0.45 -1.75 0.60 -0.60 0.80 -3.25 1.55 -5.25 1.55 -2.05 0 -2.25 -0.10 -2.80 -1.75z"/>
  <path d="M247 122.80 c0 -0.65 1.40 -1.30 2.90 -1.30 0.30 0 0.60 0.45 0.60 1 0 0.80 -0.35 1 -1.75 1 -1.15 0 -1.75 -0.25 -1.75 -0.70z"/>
  <path d="M251 122.30 c0 -0.35 0.50 -0.80 1.15 -1 2.05 -0.55 2.85 -0.35 2.85 0.70 0 0.85 -0.35 1 -2 1 -1.35 0 -2 -0.20 -2 -0.70z"/>
  <path d="M258.50 121.75 c0 -0.40 0.70 -0.85 1.75 -1.05 2.35 -0.45 5.25 0.15 5.25 1.05 0 0.60 -0.75 0.75 -3.50 0.75 -2.75 0 -3.50 -0.15 -3.50 -0.75z"/>
  <path d="M186.85 81.15 c-0.15 -0.25 -0.25 -4.60 -0.30 -9.75 0 -9.05 0 -9.40 0.95 -9.40 0.95 0 1 0.40 1 9.75 0 8.15 -0.10 9.75 -0.70 9.75 -0.40 0 -0.85 -0.15 -0.95 -0.35z"/>
  <path d="M321.35 81.15 c-0.20 -0.15 -0.35 -1.55 -0.35 -3 l0 -2.70 2.60 0.15 2.65 0.15 0.45 2.10 c0.55 2.80 -0.15 3.65 -2.95 3.65 -1.15 0 -2.25 -0.15 -2.40 -0.35z m4.05 -2.75 c0.15 -1.30 0.05 -1.40 -1.60 -1.40 -1.65 0 -1.80 0.10 -1.80 1.55 0 1.40 0.10 1.50 1.65 1.35 1.35 -0.10 1.65 -0.40 1.75 -1.50z"/>
  <path d="M340.25 79.45 c-0.45 -1.40 0.50 -2 3 -1.85 1.65 0.15 2.05 0.35 2.15 1.30 0.20 1.20 -1.45 2.25 -1.80 1.20 -0.25 -0.75 -1.60 -0.80 -1.60 -0.10 0 0.95 -1.45 0.50 -1.75 -0.55z"/>
  <path d="M331 78.80 c0 -1.10 0.85 -1.40 2.50 -1.05 2.30 0.50 1.90 1.75 -0.50 1.75 -1.40 0 -2 -0.20 -2 -0.70z"/>
  <path d="M349.25 76.65 c0.80 -1.50 3.25 -2.05 3.25 -0.75 0 1.05 -1.30 2.10 -2.70 2.10 -1.20 0 -1.20 -0.05 -0.55 -1.35z"/>
  <path d="M220.50 76.30 c0 -0.40 0.65 -0.85 1.45 -1.05 0.85 -0.15 1.60 -0.70 1.70 -1.15 0.15 -0.45 0.25 0 0.30 1.05 0.05 1.80 0 1.85 -1.70 1.85 -1.20 0 -1.75 -0.25 -1.75 -0.70z"/>
  <path d="M331.15 72.15 c-0.35 -0.10 -0.65 -0.55 -0.65 -0.95 0 -0.55 1.25 -0.70 6.75 -0.70 6.40 0 6.75 -0.05 6.75 -1 0 -0.70 0.35 -1 1.05 -1 0.85 0 1 0.25 0.85 1.90 l-0.15 1.85 -7 0.10 c-3.85 0 -7.30 -0.05 -7.60 -0.20z"/>
  <path d="M322.50 71 c0 -0.75 0.35 -1 1.25 -1 0.90 0 1.25 0.25 1.25 1 0 0.75 -0.35 1 -1.25 1 -0.90 0 -1.25 -0.25 -1.25 -1z"/>
  <path d="M351.50 71 c0 -0.75 0.35 -1 1.25 -1 0.90 0 1.25 0.25 1.25 1 0 0.75 -0.35 1 -1.25 1 -0.90 0 -1.25 -0.25 -1.25 -1z"/>
  <path d="M223.30 69.25 c0.20 -0.45 -0.15 -0.80 -1 -1.05 -1.95 -0.50 -1.65 -1.70 0.45 -1.70 1.65 0 1.75 0.10 1.75 1.75 0 1.20 -0.25 1.75 -0.75 1.75 -0.40 0 -0.60 -0.30 -0.45 -0.75z"/>
  <path d="M408.50 68 c0 -0.75 0.45 -1.10 1.50 -1.30 0.85 -0.20 1.50 -0.65 1.50 -1 0 -0.45 0.55 -0.70 1.50 -0.70 1.35 0 1.45 0.10 0.95 0.90 -0.75 1.25 -3.55 3.10 -4.60 3.10 -0.50 0 -0.85 -0.40 -0.85 -1z"/>
  <path d="M322.60 67.65 c0.10 -0.50 0.65 -0.95 1.30 -1.05 0.85 -0.15 1.10 0.10 1.10 0.85 0 0.80 -0.30 1.05 -1.30 1.05 -0.95 0 -1.25 -0.25 -1.10 -0.85z"/>
  <path d="M351.50 67.55 c0 -0.50 0.45 -1.05 0.95 -1.20 1.20 -0.30 1.55 0 1.55 1.25 0 0.65 -0.35 0.90 -1.25 0.90 -0.90 0 -1.25 -0.25 -1.25 -0.95z"/>
  <path d="M401.15 64.30 c-0.55 -1.25 -1.20 -1.80 -2.10 -1.90 l-1.30 -0.15 -0.10 -6.15 -0.10 -6.15 -2.30 -2.55 c-2.95 -3.25 -4.60 -6.55 -5.05 -9.85 -0.30 -2.40 -0.25 -2.55 0.75 -2.55 0.75 0 1.05 0.30 1.05 1.15 0 1.55 1.60 6 2.35 6.50 0.35 0.20 0.65 0.75 0.65 1.10 0 0.40 0.25 0.75 0.50 0.75 0.30 0 0.50 0.45 0.50 1 0 0.65 0.35 1 0.90 1 2.15 0 2.60 1.45 2.60 8.40 l0 6.60 1.45 0 c1.55 0 2.05 0.70 2.05 3.05 0 1.95 -0.85 1.85 -1.85 -0.25z"/>
  <path d="M226.50 63 c0 -0.65 0.35 -1 1 -1 0.65 0 1 0.35 1 1 0 0.65 -0.35 1 -1 1 -0.65 0 -1 -0.35 -1 -1z"/>
  <path d="M351.50 61.50 c0 -0.75 0.35 -1 1.25 -1 0.90 0 1.25 0.25 1.25 1 0 0.75 -0.35 1 -1.25 1 -0.90 0 -1.25 -0.25 -1.25 -1z"/>
  <path d="M351.35 59.05 c-0.30 -1.25 0 -1.55 1.50 -1.55 1.35 0 1.65 1.70 0.35 2.20 -1.25 0.50 -1.55 0.35 -1.85 -0.65z"/>
  <path d="M344 58 c0 -0.65 0.35 -1 1 -1 0.65 0 1 0.35 1 1 0 0.65 -0.35 1 -1 1 -0.65 0 -1 -0.35 -1 -1z"/>
  <path d="M322.40 52.95 c-0.50 -0.25 -0.90 -0.95 -0.90 -1.50 0 -0.80 0.30 -1 1.35 -0.85 0.75 0.10 1.40 -0.10 1.50 -0.45 0.15 -0.45 -0.30 -0.65 -1.30 -0.65 -2.25 0 -2.05 -1.35 0.30 -1.80 1.55 -0.30 1.95 -0.15 2.75 0.80 1.05 1.30 0.80 2.80 -0.70 4.15 -1.15 0.95 -1.80 1.05 -3 0.30z"/>
  <path d="M351.35 52.90 c-2.35 -0.85 -2.45 -4.60 -0.05 -5.20 0.65 -0.15 1.75 -0.20 2.35 0 1.05 0.25 1.20 0.55 1.10 2.60 -0.05 1.35 -0.35 2.45 -0.80 2.75 -0.85 0.50 -0.80 0.50 -2.60 -0.15z m1.65 -2.65 c0 -0.40 -0.35 -0.75 -0.75 -0.75 -0.80 0 -1 0.60 -0.40 1.15 0.55 0.60 1.15 0.40 1.15 -0.40z"/>
  <path d="M331.10 50.15 c0.15 -1.30 0.30 -1.40 2.40 -1.35 1.70 0 2.30 0.25 2.40 0.85 0.15 0.65 -0.20 0.85 -1.35 0.85 -0.85 0 -1.55 0.25 -1.55 0.50 0 0.30 -0.45 0.50 -1.05 0.50 -0.80 0 -1 -0.25 -0.85 -1.35z"/>
  <path d="M340.30 50.70 c-0.55 -1.40 0.70 -2.25 2.90 -2.10 1.70 0.10 2.10 0.35 2.20 1.30 0.20 1.30 -1.25 2.10 -2 1.05 -0.35 -0.55 -0.55 -0.55 -0.75 -0.05 -0.35 0.85 -2 0.75 -2.35 -0.20z"/>
  <path d="M402 44.90 c-1.30 -0.70 -2.85 -2.05 -3.75 -3.30 -1.30 -1.90 -1.50 -2.70 -1.70 -6.20 -0.20 -5.25 0.45 -7.30 3.15 -9.80 2.40 -2.20 5.25 -3.25 8.20 -3 l1.85 0.15 -0.05 2.65 c-0.10 2.35 0 2.65 1.10 2.90 0.65 0.15 1.75 1 2.45 1.80 1 1.20 1.25 2 1.25 4.35 0 3.25 -0.85 4.85 -3.15 5.80 -1.45 0.60 -1.55 0.75 -1.40 3.20 l0.10 2.55 -2.90 0 c-2.05 0 -3.60 -0.35 -5.15 -1.10z m9.40 -7.75 c3.50 -3.80 -1.95 -9.35 -6.05 -6.15 -3.55 2.80 -1.05 8.45 3.35 7.65 0.85 -0.15 2.05 -0.80 2.70 -1.50z"/>
  <path d="M423.70 40.40 c0.20 -1.20 0.45 -3.65 0.60 -5.50 0.35 -3.60 1.35 -4.65 1.95 -2 0.35 1.65 -0.40 7.05 -1.25 8.55 -0.95 1.80 -1.65 1.25 -1.30 -1.05z"/>
  <path d="M390.25 31.65 c1.10 -7.60 7.05 -13.70 14.65 -14.90 1.85 -0.30 2.10 -0.20 2.10 0.60 0 0.70 -0.60 1.05 -2.65 1.55 -1.45 0.30 -3 0.60 -3.50 0.60 -0.45 0 -0.85 0.35 -0.85 0.75 0 0.40 -0.30 0.75 -0.70 0.75 -0.40 0 -0.80 0.35 -1 0.75 -0.15 0.40 -0.75 0.75 -1.30 0.75 -0.60 0 -1 0.35 -1 0.90 -0.05 0.95 -1.65 3.10 -2.40 3.10 -0.25 0 -0.60 0.75 -0.75 1.65 -0.95 5.75 -0.95 5.85 -1.95 5.85 -0.90 0 -1 -0.20 -0.65 -2.35z"/>
  <path d="M423.50 28.25 c0 -1.95 0.70 -2.30 1.50 -0.80 0.80 1.55 0.60 2.55 -0.50 2.55 -0.80 0 -1 -0.35 -1 -1.75z"/>
  <path d="M421.50 24.15 l0.05 -1.90 1.20 1.40 c1.60 1.80 1.55 2.35 0 2.35 -1.10 0 -1.25 -0.20 -1.25 -1.85z"/>
  <path d="M417.50 21 c0 -0.75 -0.35 -1 -1.45 -1 -0.80 0 -1.80 -0.35 -2.25 -0.75 -0.40 -0.40 -1.40 -0.75 -2.25 -0.75 -1.20 0 -1.55 -0.20 -1.55 -1 0 -1.20 0.50 -1.20 3.65 -0.25 2.25 0.65 6.45 3.20 7.10 4.25 0.20 0.30 -0.45 0.50 -1.45 0.50 -1.45 0 -1.80 -0.20 -1.80 -1z"/>
 </g>
 <g fill="#c6cfac">
  <path d="M224.60 208.90 c-0.90 -0.90 -0.70 -2.80 0.35 -3.40 0.70 -0.35 20.50 -0.45 62.45 -0.40 l61.45 0.15 -1.25 -1.60 c-1.25 -1.70 -2.55 -4.75 -2.60 -6.25 0 -0.55 0.35 -0.90 1 -0.90 0.80 0 1 -0.35 1 -1.75 0 -0.95 0.25 -1.75 0.50 -1.75 0.30 0 0.50 0.35 0.50 0.75 0 0.65 3.80 0.75 31 0.75 l31 0 0 -54.25 c0 -47.90 -0.10 -54.25 -0.75 -54.25 -0.40 0 -0.75 -0.35 -0.75 -0.75 0 -0.45 0.45 -0.75 1.25 -0.75 1.10 0 1.25 -0.20 1.25 -1.75 0 -0.95 0.20 -1.75 0.50 -1.75 1.70 0 1.75 1.10 1.75 60.25 l0 58 -1.10 2.05 c-0.60 1.10 -1.45 2.30 -1.85 2.65 -1 0.85 -1.05 1.60 -0.10 1.25 1.95 -0.75 3.70 2.20 2.20 3.70 -0.85 0.85 -186.95 0.85 -187.80 0z m179.55 -3.20 c1.25 -0.40 2.55 -1.10 2.90 -1.50 0.30 -0.40 1 -0.70 1.50 -0.70 0.70 0 0.95 -0.35 0.95 -1.25 0 -0.80 0.30 -1.25 0.75 -1.25 0.45 0 0.75 -0.45 0.75 -1.10 0 -0.65 0.15 -1.65 0.30 -2.25 l0.30 -1.15 -32.35 0 -32.35 0 0.30 1.55 c0.15 0.85 0.30 2.10 0.30 2.75 0 0.85 0.30 1.20 0.90 1.20 0.50 0 1.40 0.60 2.05 1.30 0.60 0.70 2.05 1.70 3.20 2.25 1.95 0.85 3.55 0.95 25.15 0.95 19.65 0 23.35 -0.10 25.35 -0.80z"/>
  <path d="M268.15 110.50 c-0.55 -0.95 -1.50 -1.70 -2.60 -2 -1.60 -0.45 -1.90 -0.35 -3.35 1.05 l-1.60 1.55 -2.20 -1.20 c-2 -1.10 -2.15 -1.30 -2 -3.10 0.20 -2.70 -1.35 -4.30 -4.15 -4.30 -1.95 0 -2.05 -0.10 -2.90 -2.30 l-0.80 -2.25 1.65 -1.50 c2.50 -2.15 2.75 -3.80 0.85 -5.55 -0.85 -0.80 -1.55 -1.55 -1.55 -1.65 0 -0.15 0.50 -1.25 1.10 -2.45 l1.05 -2.25 2.35 0.30 c2.90 0.35 4 -0.60 4 -3.35 0 -1.45 -0.20 -1.95 -1 -2.15 -0.95 -0.25 -4 -6.05 -4 -7.60 0 -0.40 1.10 -1.60 2.40 -2.70 l2.40 -2.05 -0.30 -2.60 c-0.35 -2.60 -0.80 -3.20 -4.20 -5.70 l-1.40 -1.05 1.45 -3.95 1.45 -3.95 3.45 0.15 c3.25 0.15 3.65 0.05 5.65 -1.45 l2.15 -1.60 -0.35 -2.70 c-0.15 -1.50 -0.35 -3.10 -0.40 -3.50 -0.05 -0.50 1.30 -1.35 3.85 -2.45 l3.95 -1.70 1.40 1.65 c0.80 0.85 1.85 2.10 2.35 2.70 0.75 0.95 1.25 1.05 3.30 0.80 2.20 -0.25 2.60 -0.50 4.45 -2.95 1.10 -1.50 2.05 -2.70 2.10 -2.70 0 0 1.75 0.65 3.80 1.45 l3.75 1.50 0 3.50 c0 3.15 0.15 3.60 1.45 5 l1.50 1.55 -1.75 0 c-2.50 0 -2.95 -0.70 -2.95 -4.80 l0 -3.55 -2.35 -1 c-2.75 -1.10 -4.15 -1 -4.15 0.40 0 0.50 -0.20 0.95 -0.45 0.95 -0.25 0 -0.55 0.45 -0.70 1 -0.20 0.75 -0.70 1 -2.05 1 -1.70 0 -1.80 0.05 -1.80 1.75 0 1.50 0.15 1.75 1.20 1.75 1.95 0 7.85 2 8.15 2.80 0.15 0.40 0.55 0.70 0.85 0.70 0.70 0 2.80 2.05 2.80 2.75 0 0.20 0.35 0.65 0.75 0.95 1 0.75 2.75 5.85 2.75 8.05 0 2.45 -1.35 2.35 -1.80 -0.10 -0.95 -5.50 -5.55 -10.95 -10.35 -12.40 -6.55 -1.95 -12.35 -0.45 -16.45 4.25 -5.75 6.55 -5.65 15.80 0.30 21.70 4.50 4.50 9.15 5.70 15.15 3.90 5.75 -1.75 9.80 -6.10 11.15 -11.95 0.40 -1.80 0.85 -2.65 1.35 -2.65 0.65 0 0.75 0.50 0.50 2.85 -0.15 1.60 -0.55 2.95 -0.85 3.05 -0.25 0.10 -0.50 0.65 -0.50 1.15 0 1.45 -0.90 2.95 -1.75 2.95 -0.40 0 -0.75 0.40 -0.75 0.90 0 1 -1.45 2.60 -2.35 2.60 -0.30 0 -0.65 0.30 -0.80 0.70 -0.30 0.70 -5.45 2.60 -7.85 2.90 -1 0.10 -1.25 0.40 -1.25 1.65 0 1.35 0.20 1.50 1.65 1.65 1.30 0.15 1.60 0.35 1.60 1.40 0 0.95 0.25 1.20 1.30 1.20 0.90 0 1.40 0.30 1.55 1 0.30 1.15 0.70 1.10 4.40 -0.55 l2.10 -0.95 -0.25 -3.40 -0.20 -3.40 2.05 -1.85 c1.65 -1.50 2.45 -1.85 4.05 -1.85 1.65 0 2 0.15 2 1 0 0.75 -0.35 1 -1.35 1 -0.90 0 -2 0.60 -3.15 1.75 -1.75 1.70 -1.80 1.80 -1.50 4.65 0.20 1.55 0.25 3.10 0.15 3.35 -0.10 0.30 -1.90 1.25 -4.05 2.15 l-3.85 1.65 -2.25 -2.55 c-2.25 -2.50 -3.95 -3.35 -3.25 -1.60 1 2.35 0.90 3.15 -0.65 4.50 -2.25 1.95 -2.55 3.70 -0.90 5.35 1.55 1.50 1.60 2.10 0.45 4.50 -0.90 1.85 -0.95 1.90 -3.70 1.75 -2.35 -0.10 -3.45 1.35 -3.45 4.55 0 1.95 -0.20 2.35 -1.25 2.85 -2.20 1 -3.60 0.75 -4.60 -0.90z m1.35 -8.75 c2.10 -1.10 3.85 -3.70 4.25 -6.30 l0.35 -2.30 -3.45 -1.15 c-4.15 -1.35 -5.30 -2.25 -4.65 -3.55 0.85 -1.50 0.55 -1.95 -1.20 -1.95 -3.60 0 -6.80 3.80 -6.80 8.05 0 5.70 6.50 9.80 11.50 7.20z"/>
  <path d="M345 84.75 c0 -1.25 1.40 -4.25 1.95 -4.25 0.60 0 0.70 2.10 0.25 3.90 -0.35 1.25 -2.20 1.55 -2.20 0.35z"/>
  <path d="M303.90 78.65 c-1 -0.25 -1.25 -1.65 -0.25 -1.65 0.30 0 1.05 -1.30 1.65 -2.90 0.95 -2.75 1 -2.90 0.10 -3.70 -0.50 -0.50 -1.05 -0.90 -1.30 -0.90 -1.40 0 -3.05 -4.30 -3.10 -7.95 0 -1.80 2 -4.55 3.30 -4.55 1.10 0 1.05 -1.25 -0.15 -3.90 l-1.20 -2.60 -2.75 0.30 c-2.25 0.30 -2.70 0.20 -2.70 -0.45 0 -0.80 0.80 -1.05 4.60 -1.60 2.20 -0.35 2.40 -0.25 2.85 0.80 0.25 0.65 1.05 2.50 1.75 4.10 l1.30 2.90 -2.70 2.45 -2.65 2.50 0.65 2.60 c0.40 1.55 1.10 2.85 1.80 3.35 0.60 0.40 1.75 1.35 2.50 2.05 l1.35 1.25 -1.60 3.95 c-1.65 4.05 -1.95 4.35 -3.45 3.95z"/>
  <path d="M350.50 76.30 c0 -0.40 0.95 -0.90 2.20 -1.25 3 -0.75 3.30 -0.70 3.30 0.40 0 0.65 -0.50 1 -1.55 1.25 -2.55 0.50 -3.95 0.35 -3.95 -0.40z"/>
  <path d="M403.40 76.65 c-1.10 -0.30 -1.20 -2.15 -0.15 -2.15 1.25 0 4.25 1.40 4.25 1.95 0 0.55 -2.45 0.65 -4.10 0.20z"/>
  <path d="M189.05 73.40 c-0.05 -1.85 0 -1.90 1.70 -1.90 1.40 0 1.75 0.20 1.75 1 0 0.80 -0.25 0.95 -1.30 0.80 -0.95 -0.20 -1.35 0 -1.70 0.85 -0.35 0.95 -0.45 0.80 -0.45 -0.75z"/>
  <path d="M206.45 45.50 c-0.55 -0.30 -0.75 -0.90 -0.55 -1.75 0.30 -1.60 -0.65 -2.75 -2.30 -2.75 -2.15 0 -3.40 -2.70 -1.85 -4 1.05 -0.85 0.95 -2 -0.25 -3.25 -0.85 -0.90 -0.95 -1.35 -0.55 -2.40 0.45 -1.10 0.85 -1.35 2.25 -1.35 1.90 0 2.55 -0.60 2.55 -2.50 0 -0.80 0.45 -1.45 1.25 -1.85 1.10 -0.55 1.35 -0.50 2.10 0.35 1 1.25 1.95 1.25 3.50 0.05 1.85 -1.50 3.35 -0.90 3.70 1.50 0.30 1.80 0.45 1.95 2 1.95 1.35 0 1.85 0.25 2.30 1.30 0.45 1 0.45 1.45 0 2.10 -1.20 1.70 -1.20 2.20 -0.10 3.70 1.45 2 0.90 4.15 -1 4.15 -1.80 0 -2.50 0.60 -2.50 2.20 0 1.95 -2.40 3.05 -4.10 1.85 -1.50 -1.10 -2.75 -1 -3.50 0.20 -0.70 1.10 -1.70 1.25 -2.95 0.50z m8.65 -6 c1.45 -1.60 1.90 -2.45 1.90 -3.80 0 -3.75 -2.45 -6.20 -6.20 -6.20 -1.80 0 -2.50 0.30 -3.75 1.50 -3.85 3.90 -1.30 10.50 4.05 10.50 1.75 0 2.35 -0.30 4 -2z"/>
  <path d="M180.90 32.70 c-1.15 -0.60 -1.40 -1.05 -1.40 -2.65 0 -2.30 -1.20 -3.55 -3.40 -3.55 -1.35 0 -1.70 -0.30 -2.25 -1.60 -0.65 -1.50 -0.60 -1.75 0.50 -3.05 1.50 -1.85 1.45 -2.65 -0.35 -4.35 -1.45 -1.35 -1.50 -1.45 -0.75 -3.20 0.70 -1.60 0.95 -1.80 2.70 -1.80 2.45 0 3.75 -1.35 3.35 -3.35 -0.30 -1.30 -0.15 -1.55 1.50 -2.30 1.85 -0.90 1.85 -0.90 3.15 0.35 1.70 1.65 3.20 1.65 4.45 0.05 1.15 -1.45 1.65 -1.50 3.60 -0.50 1.20 0.65 1.45 1 1.25 2.15 -0.40 2 0.85 3.35 2.95 3.20 1.30 -0.10 1.90 0.15 2.50 1 1.10 1.55 1 3.15 -0.25 4 -0.90 0.55 -1 1 -0.70 2.30 0.15 0.90 0.75 1.85 1.30 2.10 1.10 0.60 1.20 1.90 0.35 3.75 -0.45 1 -0.90 1.25 -2.40 1.25 -2.25 0 -3 0.70 -3 3 0 1.60 -0.20 1.90 -1.80 2.70 -1.85 0.85 -1.85 0.85 -3.15 -0.40 -1.75 -1.70 -3.20 -1.65 -4.70 0.20 -1.45 1.70 -1.60 1.75 -3.45 0.70z m9.20 -6.50 c5.35 -2.75 4.95 -11.65 -0.60 -13.90 -2.45 -1 -3.55 -1 -5.70 -0.10 -5.25 2.20 -6.70 8.20 -2.90 12.40 2.60 2.85 5.65 3.40 9.20 1.60z"/>
 </g>
 <g fill="#acdeab">
  <path d="M189.85 185.65 c-0.35 -0.35 -0.20 -1.60 0.70 -6.50 0.35 -1.75 0.75 -2.65 1.25 -2.65 0.85 0 0.85 0.65 0.10 5.65 -0.55 3.55 -1.10 4.50 -2.05 3.50z"/>
  <path d="M330.50 185 c0 -0.65 0.35 -1 1 -1 0.65 0 1 0.35 1 1 0 0.65 -0.35 1 -1 1 -0.65 0 -1 -0.35 -1 -1z"/>
  <path d="M330.50 182.65 c0 -0.50 -0.60 -3.15 -1.30 -5.90 -0.70 -2.75 -1.40 -5.65 -1.55 -6.50 -0.15 -0.80 -0.45 -1.60 -0.60 -1.75 -0.75 -0.60 -3.70 -7.90 -3.95 -9.60 -0.15 -1.45 -0.45 -1.90 -1.15 -1.90 -0.75 0 -0.95 -0.35 -0.95 -1.75 0 -0.95 0.20 -1.75 0.40 -1.75 0.75 0 5.40 9.05 7 13.50 1.60 4.40 3.25 10.65 3.85 14.40 0.30 1.90 0.25 2.10 -0.70 2.10 -0.65 0 -1.05 -0.30 -1.05 -0.85z"/>
  <path d="M191.50 174.65 c0.05 -1.60 2.25 -7.35 2.90 -7.55 0.85 -0.25 0.75 1.80 -0.25 5.40 -0.60 2.30 -1.05 3 -1.75 3 -0.55 0 -0.90 -0.35 -0.90 -0.85z"/>
  <path d="M224.90 166.90 c-0.85 -0.30 -1.40 -0.85 -1.40 -1.45 0 -0.60 -0.35 -0.95 -0.95 -0.95 -1.05 0 -1.55 -0.95 -1.55 -3.05 0 -2.05 1.15 -1.85 1.95 0.35 0.80 2.15 3.10 3.70 5.70 3.70 1.50 0 1.85 0.20 1.85 1 0 0.85 -0.30 1 -2.10 0.95 -1.20 0 -2.75 -0.25 -3.50 -0.55z"/>
  <path d="M290.90 167.20 c-0.55 -0.15 -0.90 -0.75 -0.90 -1.55 0 -1 0.15 -1.20 0.90 -0.85 0.45 0.20 1.80 0.45 2.90 0.60 1.75 0.15 2.35 -0.05 3.85 -1.35 1.95 -1.75 2.65 -4.15 1.85 -6.25 -0.45 -1.20 -0.35 -1.30 0.75 -1.30 1.20 0 1.25 0.15 1.25 3.25 0 1.80 -0.20 3.25 -0.45 3.25 -0.25 0 -0.55 0.50 -0.65 1.05 -0.10 0.60 -0.60 1.35 -1.15 1.65 -0.55 0.30 -1.15 0.75 -1.30 0.95 -0.35 0.50 -5.80 0.90 -7.05 0.55z"/>
  <path d="M194.55 165.15 c2.15 -5.75 8 -15.25 12.20 -19.90 l2.25 -2.50 -0.10 2 c-0.15 1.65 -0.35 2.05 -1.25 2.15 -0.85 0.15 -1.15 0.50 -1.15 1.40 0 0.70 -0.35 1.35 -0.75 1.50 -0.40 0.20 -0.75 0.60 -0.75 1 0 0.40 -0.35 0.70 -0.75 0.70 -0.40 0 -0.75 0.45 -0.75 1 0 0.55 -0.20 1 -0.50 1 -0.25 0 -0.50 0.35 -0.50 0.75 0 0.40 -0.35 0.75 -0.75 0.75 -0.40 0 -0.75 0.45 -0.75 0.95 0 1.50 -0.55 2.55 -1.30 2.55 -0.40 0 -0.70 0.50 -0.70 1.20 0 0.70 -0.35 1.55 -0.75 2 -0.40 0.40 -0.75 1.05 -0.75 1.50 0 1.65 -1.15 3.30 -2.30 3.30 -1.05 0 -1.15 -0.10 -0.65 -1.35z"/>
  <path d="M286.50 159.75 c0 -3.65 0.05 -3.75 1.25 -3.75 1.05 0 1.25 -0.25 1.25 -1.50 0 -1.15 0.20 -1.50 1 -1.50 0.55 0 1 -0.20 1 -0.50 0 -0.25 0.90 -0.50 2 -0.50 2.50 0 2.75 1.25 0.40 1.75 -4.45 1 -6.30 4.55 -4.65 8.90 0.30 0.65 0.10 0.85 -0.95 0.85 -1.30 0 -1.30 -0.05 -1.30 -3.75z"/>
  <path d="M233.95 161.15 c1.20 -4.35 -3.60 -8.65 -7.70 -6.95 -0.85 0.40 -2.05 1.25 -2.60 2 -1.40 1.70 -1.65 1.65 -1.65 -0.45 0 -1.25 0.25 -1.90 0.90 -2.10 0.45 -0.20 1 -0.55 1.20 -0.85 0.15 -0.25 1.65 -0.60 3.25 -0.70 3.30 -0.25 6.45 0.80 7 2.25 0.20 0.50 0.55 1.05 0.85 1.25 0.25 0.20 0.60 1.80 0.70 3.60 0.20 3.25 0.20 3.30 -1.05 3.30 -1.15 0 -1.25 -0.15 -0.90 -1.35z"/>
  <path d="M318 151.75 c0 -0.40 -0.20 -0.75 -0.50 -0.75 -0.25 0 -0.50 -0.40 -0.50 -0.95 0 -0.50 -0.45 -1.05 -1 -1.20 -0.70 -0.15 -1 -0.70 -1 -1.55 0 -0.90 -0.25 -1.30 -0.90 -1.30 -0.50 0 -1.95 -1.10 -3.30 -2.45 -1.95 -1.95 -2.35 -2.70 -2.20 -3.85 0.15 -1.45 0.25 -1.40 4.15 2.60 2.20 2.20 4.95 5.40 6.15 7.10 l2.15 3.10 -1.50 0 c-1.05 0 -1.55 -0.25 -1.55 -0.75z"/>
  <path d="M211.75 140.15 l2.50 -2.30 0.15 1.35 c0.25 1.95 -1.15 3.30 -3.35 3.30 l-1.80 -0.05 2.50 -2.30z"/>
  <path d="M215.55 136.70 c0.35 -0.40 2.85 -2.25 5.55 -4.05 l4.95 -3.25 -1.10 -1.85 c-5.80 -9.80 -10.95 -19.20 -10.95 -19.95 0 -1.35 1.20 -2.20 2.80 -2 1.15 0.15 2.05 1.45 7.40 10.80 5.10 8.95 6.20 10.60 7.05 10.40 0.55 -0.10 2.90 -0.90 5.25 -1.70 2.35 -0.85 5.10 -1.65 6.15 -1.85 1.60 -0.30 1.85 -0.25 1.85 0.60 0 0.75 -0.55 1.10 -2.55 1.55 -1.40 0.35 -2.95 0.60 -3.50 0.60 -0.50 0 -0.95 0.20 -0.95 0.40 0 0.65 -5.15 2.60 -6.90 2.60 -1.45 0 -1.60 -0.15 -1.60 -1.50 0 -1.15 -0.20 -1.50 -1 -1.50 -0.75 0 -1 -0.35 -1 -1.25 0 -0.75 -0.30 -1.25 -0.70 -1.25 -0.75 0 -1.30 -1.05 -1.30 -2.55 0 -0.50 -0.35 -0.95 -0.75 -0.95 -0.50 0 -0.75 -0.55 -0.75 -1.75 0 -1.40 -0.20 -1.75 -1 -1.75 -0.80 0 -1 -0.35 -1 -1.75 0 -1.40 -0.20 -1.75 -1 -1.75 -0.75 0 -1 -0.35 -1 -1.25 0 -0.75 -0.30 -1.25 -0.75 -1.25 -0.40 0 -0.85 -0.55 -1.05 -1.25 -0.15 -0.70 -0.50 -1.25 -0.75 -1.25 -0.25 0 -0.45 0.55 -0.45 1.25 0 0.75 0.30 1.25 0.70 1.25 0.85 0 1.30 1.10 1.30 3.05 0 1.10 0.25 1.45 1 1.45 0.80 0 1 0.35 1 1.75 0 1.40 0.20 1.75 1 1.75 0.80 0 1 0.35 1 1.75 0 1.40 0.20 1.75 1 1.75 0.75 0 1 0.35 1 1.25 0 0.80 0.30 1.25 0.75 1.25 0.45 0 0.75 0.45 0.75 1.25 0 0.80 0.30 1.25 0.75 1.25 0.55 0 0.75 0.60 0.75 2.25 0 2.05 -0.10 2.25 -1.25 2.25 -0.80 0 -1.25 0.30 -1.25 0.75 0 0.40 -0.35 0.75 -0.75 0.75 -0.40 0 -0.75 0.25 -0.75 0.50 0 0.30 -0.35 0.50 -0.75 0.50 -0.40 0 -0.75 0.25 -0.75 0.50 0 0.30 -0.30 0.50 -0.70 0.50 -0.40 0 -0.80 0.35 -1 0.75 -0.15 0.40 -0.60 0.75 -1.05 0.75 -0.40 0 -0.75 0.25 -0.75 0.50 0 0.30 -0.80 0.50 -1.80 0.50 -1.60 0 -1.75 -0.10 -1.15 -0.80z"/>
  <path d="M301 135 c0 -0.25 -0.35 -0.50 -0.75 -0.50 -0.40 0 -0.75 -0.20 -0.75 -0.50 0 -0.25 -0.35 -0.50 -0.75 -0.50 -0.45 0 -0.75 -0.45 -0.75 -1.25 0 -0.70 0.15 -1.25 0.35 -1.25 0.50 0 5 3 5.65 3.80 0.55 0.60 0.35 0.70 -1.20 0.70 -1 0 -1.80 -0.20 -1.80 -0.50z"/>
  <path d="M295 128.30 c0 -0.95 0.35 -2.05 0.75 -2.50 0.40 -0.40 0.75 -0.95 0.75 -1.25 0 -0.30 0.35 -0.55 0.75 -0.55 0.40 0 0.75 -0.45 0.75 -0.95 0 -1.50 0.55 -2.55 1.30 -2.55 0.40 0 0.70 -0.50 0.70 -1.25 0 -0.80 0.30 -1.25 0.75 -1.25 0.45 0 0.75 -0.45 0.75 -1.25 0 -0.90 0.25 -1.25 1 -1.25 0.80 0 1 -0.35 1 -1.55 0 -1.45 0.75 -3.40 1.50 -3.95 0.20 -0.15 0.50 -0.80 0.70 -1.50 0.15 -0.70 0.15 -0.95 0 -0.60 -0.15 0.30 -0.60 0.60 -1 0.60 -0.40 0 -0.70 0.50 -0.70 1.25 0 0.80 -0.30 1.25 -0.75 1.25 -0.45 0 -0.75 0.45 -0.75 1.25 0 0.90 -0.25 1.25 -1 1.25 -0.80 0 -1 0.35 -1 1.75 0 1.40 -0.20 1.75 -1 1.75 -0.75 0 -1 0.35 -1 1.45 0 1.95 -0.45 3.05 -1.30 3.05 -0.40 0 -0.70 0.50 -0.70 1.25 0 0.80 -0.30 1.25 -0.75 1.25 -0.45 0 -0.75 0.45 -0.75 1.20 0 0.70 -0.35 1.55 -0.75 2 -0.40 0.40 -0.75 0.95 -0.75 1.25 0 0.30 -0.90 0.55 -2 0.55 -1.10 0 -2 -0.20 -2 -0.50 0 -0.25 -0.45 -0.50 -1 -0.50 -1 0 -3.55 -1 -4 -1.55 -0.15 -0.15 -0.90 -0.45 -1.75 -0.60 -0.80 -0.15 -3.90 -0.80 -6.85 -1.40 -4.45 -1 -5.40 -1.35 -5.40 -2.10 0 -0.80 0.30 -0.85 2.40 -0.55 3.85 0.55 11.20 2.50 14.75 3.95 1.85 0.70 3.60 1.25 3.90 1.15 0.30 -0.10 3 -4.45 6 -9.65 7.05 -12.15 6.75 -11.75 8.15 -11.75 1.50 0 2.90 1.55 2.50 2.80 -0.20 0.50 -2.90 5.35 -6.05 10.75 -3.10 5.40 -5.65 10.10 -5.65 10.40 0 0.30 -0.35 0.55 -0.75 0.55 -0.50 0 -0.75 -0.50 -0.75 -1.70z"/>
  <path d="M245 123.30 c0 -0.80 2.90 -1.50 8.40 -2.05 2.85 -0.30 3.10 -0.25 3.10 0.60 0 0.85 -0.60 1.05 -5.10 1.55 -6.40 0.75 -6.40 0.75 -6.40 -0.10z"/>
  <path d="M265 122 c0 -0.75 0.35 -1 1.40 -1 2.10 0 3.60 0.55 3.60 1.30 0 0.50 -0.70 0.70 -2.50 0.70 -2.15 0 -2.50 -0.15 -2.50 -1z"/>
  <path d="M186.85 80.90 c-0.30 -1.05 0.20 -2.40 0.95 -2.40 0.40 0 0.70 0.25 0.70 0.50 0 0.30 6.50 0.50 18.50 0.50 18.15 0 18.50 0 18.50 1 0 1 -0.35 1 -19.20 1 -14.95 0 -19.25 -0.15 -19.45 -0.60z"/>
  <path d="M226.20 80 c0.15 -0.90 0.30 -5.35 0.30 -9.85 0 -7.55 0.05 -8.20 0.90 -8.05 0.75 0.15 0.85 1 0.85 9.65 l0 9.50 -1.20 0.15 c-1.10 0.15 -1.15 0.05 -0.85 -1.40z"/>
  <path d="M323.10 81.10 l-2.15 -0.15 0.15 -2.60 0.15 -2.60 2.50 0 c2.20 0 2.50 0.15 2.65 1.15 0.20 1.25 -0.65 1.50 -1.10 0.35 -0.40 -1.10 -3.15 -1 -3.40 0.15 -0.35 1.55 0.15 2.60 1.45 2.90 0.90 0.25 1.50 0.10 1.90 -0.50 0.80 -1.05 1.25 -1 1.25 0.15 0 1.15 -0.60 1.35 -3.40 1.15z"/>
  <path d="M331.35 80.15 c-0.20 -0.15 -0.35 -0.75 -0.35 -1.25 0 -0.70 0.30 -0.95 1.15 -0.80 1.45 0.20 1.90 2.40 0.45 2.40 -0.50 0 -1.10 -0.15 -1.25 -0.35z"/>
  <path d="M334 79.25 c0 -0.90 0.25 -1.25 1 -1.25 0.75 0 1 0.35 1 1.25 0 0.90 -0.25 1.25 -1 1.25 -0.75 0 -1 -0.35 -1 -1.25z"/>
  <path d="M340.50 79.30 c0 -1.10 0.20 -1.20 2.25 -1.20 2.45 0.05 2.90 0.35 2.45 1.60 -0.20 0.55 -0.95 0.80 -2.50 0.80 -2 0 -2.20 -0.10 -2.20 -1.20z"/>
  <path d="M349.60 76.50 c0.35 -0.55 1.15 -1 1.75 -1 0.80 0 1.15 0.30 1.15 1 0 0.80 -0.35 1 -1.75 1 -1.65 0 -1.70 -0.05 -1.15 -1z"/>
  <path d="M187.80 76.20 c-0.45 -1.20 -0.35 -3.15 0.20 -4.25 0.40 -0.65 0.35 -0.95 0 -0.95 -0.35 0 -0.50 -0.85 -0.40 -2.10 0.15 -2.10 0.20 -2.15 2.05 -2.30 1.35 -0.10 1.85 0.05 1.85 0.55 0 0.40 -0.45 0.85 -1 1 -0.55 0.15 -1 0.60 -1 1.05 0 0.75 1.65 0.80 16.90 0.70 15.70 -0.15 16.85 -0.20 16.80 -1 -0.05 -0.60 0.25 -0.90 0.95 -0.90 0.90 0 0.95 0.20 0.65 2.65 -0.15 1.40 -0.30 3.45 -0.30 4.50 0 1.80 -0.05 1.85 -1.75 1.85 -2.05 0 -2.45 -1.20 -0.50 -1.70 0.70 -0.20 1.25 -0.65 1.25 -1.05 0 -0.65 -2.25 -0.75 -16 -0.85 -8.80 -0.05 -16.40 -0.10 -16.85 -0.10 -1.30 -0.05 -1.45 1.70 -0.20 2.05 0.60 0.15 1.05 0.60 1.05 0.95 0 1 -3.30 0.95 -3.70 -0.10z"/>
  <path d="M343.90 72.15 c-0.95 -0.25 -1.25 -1.65 -0.40 -1.65 0.30 0 0.50 -2.25 0.50 -5.75 l0 -5.75 -2.25 0 c-1.95 0 -2.25 -0.15 -2.25 -1 0 -0.95 0.25 -1.05 3.15 -0.90 l3.10 0.15 0 7.45 c0 7.50 -0.10 7.90 -1.85 7.45z"/>
  <path d="M322.85 71.70 c-0.80 -0.80 -0.30 -1.70 0.95 -1.70 0.95 0 1.25 0.25 1.10 0.85 -0.15 0.95 -1.45 1.45 -2.05 0.85z"/>
  <path d="M330.50 71 c0 -0.65 0.35 -1 1 -1 0.65 0 1 0.35 1 1 0 0.65 -0.35 1 -1 1 -0.65 0 -1 -0.35 -1 -1z"/>
  <path d="M351.85 71.70 c-0.80 -0.80 -0.30 -1.70 0.95 -1.70 0.95 0 1.25 0.25 1.10 0.85 -0.15 0.95 -1.45 1.45 -2.05 0.85z"/>
  <path d="M322.50 68.25 c0 -0.90 0.25 -1.25 1 -1.25 0.75 0 1 0.35 1 1.25 0 0.90 -0.25 1.25 -1 1.25 -0.75 0 -1 -0.35 -1 -1.25z"/>
  <path d="M351.50 68.30 c0 -1.05 0.25 -1.30 1.30 -1.30 1.05 0 1.25 0.20 1.10 1.15 -0.10 0.70 -0.55 1.15 -1.25 1.25 -0.95 0.15 -1.15 -0.05 -1.15 -1.10z"/>
  <path d="M405.25 68.40 c-1.80 -0.95 -3.30 -2.60 -4 -4.25 -0.55 -1.25 -1 -1.65 -1.95 -1.65 -1 0 -1.30 -0.25 -1.30 -1.05 0 -0.95 0.20 -1 2.15 -0.70 2.05 0.35 2.85 0.90 2.85 2.05 0 0.35 0.90 1.40 2 2.40 1.70 1.50 2.35 1.80 4.25 1.80 1.25 0 2.25 0.20 2.25 0.50 0 1.35 -4.30 2 -6.25 0.90z"/>
  <path d="M412.50 65.60 c0 -2.60 0.95 -4.10 2.60 -4.10 0.75 0 1.40 -0.20 1.40 -0.50 0 -0.25 0.45 -0.50 1 -0.50 0.65 0 1 0.35 1 1 0 0.75 -0.35 1 -1.45 1 -1.10 0 -1.55 0.30 -2.05 1.45 -0.30 0.80 -1 1.85 -1.55 2.35 -0.90 0.80 -0.95 0.80 -0.95 -0.70z"/>
  <path d="M186.85 63.55 c-0.25 -1.10 0 -1.55 1 -1.55 0.35 0 0.65 0.55 0.65 1.25 0 1.50 -1.25 1.70 -1.65 0.30z"/>
  <path d="M330.50 60.75 l0 -3.75 3.75 0 c3.40 0 3.75 0.10 3.75 1 0 0.90 -0.35 1 -2.75 1 l-2.75 0 0 2.75 c0 2.40 -0.10 2.75 -1 2.75 -0.90 0 -1 -0.35 -1 -3.75z"/>
  <path d="M322.50 61.50 c0 -0.75 0.35 -1 1.25 -1 0.90 0 1.25 0.25 1.25 1 0 0.75 -0.35 1 -1.25 1 -0.90 0 -1.25 -0.25 -1.25 -1z"/>
  <path d="M397.95 59.25 c0 -0.40 -0.05 -1.65 -0.05 -2.75 0 -3.30 0.05 -3.50 0.85 -3.50 0.60 0 0.75 0.70 0.75 3.50 0 2.80 -0.15 3.50 -0.75 3.50 -0.40 0 -0.75 -0.35 -0.80 -0.75z"/>
  <path d="M322.50 58.50 c0 -0.75 0.35 -1 1.25 -1 0.90 0 1.25 0.25 1.25 1 0 0.75 -0.35 1 -1.25 1 -0.90 0 -1.25 -0.25 -1.25 -1z"/>
  <path d="M322.10 52.40 c-1.10 -1.10 -0.65 -1.40 2 -1.40 2.50 0 2.55 0 1.65 1 -1 1.10 -2.75 1.30 -3.65 0.40z"/>
  <path d="M350.90 52.45 c-1.55 -0.90 -1 -1.45 1.40 -1.45 1.90 0 2.25 0.15 2.10 0.90 -0.20 1 -2.25 1.35 -3.50 0.55z"/>
  <path d="M331.35 51.15 c-0.20 -0.15 -0.35 -0.70 -0.35 -1.20 0 -0.65 0.45 -0.85 2.50 -0.85 2.30 0 2.50 0.10 2.50 1.20 0 1.10 -0.20 1.20 -2.15 1.20 -1.20 0 -2.35 -0.15 -2.50 -0.35z"/>
  <path d="M343 50.50 c0 -1.15 1.30 -1.90 2.05 -1.15 0.70 0.70 0 2.15 -1.10 2.15 -0.60 0 -0.95 -0.35 -0.95 -1z"/>
  <path d="M340.50 50 c0 -0.65 0.35 -1 1 -1 0.65 0 1 0.35 1 1 0 0.65 -0.35 1 -1 1 -0.65 0 -1 -0.35 -1 -1z"/>
  <path d="M417 49.35 c0 -1.95 0.75 -2.85 2.35 -2.85 0.90 0 1.15 -0.30 1.15 -1.25 0 -0.65 0.30 -1.40 0.70 -1.60 0.35 -0.20 1.25 -1.95 2.05 -3.90 1.10 -2.75 1.30 -4 1.10 -6.05 -0.30 -2.80 -2.15 -7.70 -3.20 -8.35 -0.35 -0.20 -0.65 -0.85 -0.65 -1.35 0 -0.70 -0.35 -1 -1.05 -1 -0.60 0 -1.15 -0.40 -1.30 -1 -0.15 -0.55 -0.70 -1 -1.20 -1 -0.55 0 -0.95 -0.35 -0.95 -0.75 0 -0.40 -0.40 -0.75 -0.85 -0.75 -0.50 0 -2.05 -0.30 -3.50 -0.60 -2.05 -0.50 -2.65 -0.85 -2.65 -1.60 0 -0.80 0.25 -0.90 2.15 -0.60 5.80 0.95 11.80 5.75 13.85 11.05 0.80 2.15 1.10 4.05 1.10 6.75 0 5.10 -1.40 8.70 -4.90 12.45 -1.50 1.60 -2.70 3.20 -2.70 3.50 0 0.30 -0.35 0.55 -0.75 0.55 -0.50 0 -0.75 -0.50 -0.75 -1.65z"/>
  <path d="M321.50 49 c0 -0.65 0.35 -1 1 -1 0.65 0 1 0.35 1 1 0 0.65 -0.35 1 -1 1 -0.65 0 -1 -0.35 -1 -1z"/>
  <path d="M324 49 c0 -1.20 1.75 -1.40 2.20 -0.20 0.45 1.15 0.40 1.20 -0.95 1.20 -0.90 0 -1.25 -0.25 -1.25 -1z"/>
  <path d="M350 49 c0 -0.65 0.35 -1 1 -1 0.65 0 1 0.35 1 1 0 0.65 -0.35 1 -1 1 -0.65 0 -1 -0.35 -1 -1z"/>
  <path d="M395.95 47.85 c-1.90 -1.65 -3.65 -4.30 -4.75 -7.10 -1.20 -3.10 -1.20 -9.50 -0.05 -12.65 1.95 -5.25 6.65 -9.45 12.10 -10.85 3.85 -0.95 4.25 -0.95 4.25 0.25 0 0.60 -0.35 1 -0.85 1 -1.30 0 -7.15 2.10 -7.15 2.60 0 0.20 -0.40 0.40 -0.90 0.40 -0.45 0 -1.10 0.50 -1.35 1.15 -0.30 0.65 -1.05 1.15 -1.85 1.25 -1.15 0.15 -1.40 0.40 -1.40 1.50 0 0.75 -0.45 2.55 -1 4 -0.55 1.45 -1 3.55 -1 4.70 0 2.50 1.05 7.40 1.60 7.40 0.25 0 0.40 0.80 0.40 1.75 0 1.50 0.15 1.75 1.20 1.75 1.50 0 2.40 1.10 2.20 2.70 l-0.15 1.30 -1.30 -1.15z"/>
  <path d="M403.25 45.75 c-1.10 -0.40 -2.05 -0.75 -2.10 -0.75 -0.10 0 -0.15 -0.35 -0.15 -0.75 0 -0.40 -0.45 -0.75 -1 -0.75 -0.55 0 -1 -0.35 -1 -0.75 0 -0.40 -0.20 -0.75 -0.50 -0.75 -0.80 0 -2 -2.85 -2 -4.75 0 -2.20 1.30 -2.40 1.75 -0.30 0.80 3.70 5.30 7.50 8.85 7.55 1.35 0 1.35 -0.05 1.05 -2.45 -0.30 -2.45 -0.25 -2.50 1.45 -3.20 2.10 -0.90 3.40 -2.55 3.40 -4.40 0 -1.70 -2.05 -4.25 -3.80 -4.65 -1.20 -0.30 -1.25 -0.50 -1.15 -2.80 0.10 -1.35 0 -2.60 -0.15 -2.75 -0.15 -0.20 -1.25 -0.05 -2.40 0.25 -2.75 0.75 -6.35 4.05 -7.10 6.55 -0.70 2.50 -1.90 2.60 -1.90 0.20 0 -1.20 0.25 -1.75 0.75 -1.75 0.50 0 0.75 -0.50 0.75 -1.40 0 -3.15 4.50 -5.60 10.10 -5.60 5.80 0.05 9.50 2.30 11.15 6.95 0.85 2.50 1 7.85 0.25 9.85 -0.85 2.15 -3.35 5 -5.15 5.85 -2.45 1.20 -8.65 1.55 -11.10 0.60z"/>
 </g>
 <g fill="#b2b696">
  <path d="M352.20 207.05 c-2.85 -1.30 -5.60 -4.35 -6.45 -7.25 -0.65 -2.15 -0.75 -10.40 -0.75 -58.80 0 -62.45 -0.20 -58.85 3.30 -62.95 3 -3.50 3.40 -3.55 30.95 -3.55 27.35 0 27.20 0 30.70 3.75 2.15 2.35 3.75 6.25 2.65 6.65 -0.35 0.10 -0.60 0.75 -0.60 1.40 0 0.75 -0.30 1.20 -0.75 1.20 -0.40 0 -0.75 -0.35 -0.75 -0.75 0 -0.65 -3.80 -0.75 -31.25 -0.75 -27.45 0 -31.25 0.10 -31.25 0.75 0 0.40 -0.20 0.75 -0.50 0.75 -0.35 0 -0.50 17.90 -0.50 52.75 0 34.85 0.15 52.75 0.50 52.75 0.30 0 0.50 0.35 0.50 0.80 0 0.45 0.45 0.90 1 1.05 1.60 0.40 1.20 1.65 -0.50 1.65 -1.80 0 -1.85 0.55 -0.50 3.25 0.55 1.10 1 2.35 1 2.85 0 0.50 0.35 0.90 0.70 0.90 0.40 0 1.80 0.55 3.10 1.25 l2.35 1.25 23.80 0 c22.20 0 23.95 -0.10 25.80 -0.95 2.85 -1.35 5.10 -3.65 5.85 -6 0.45 -1.40 0.95 -2.05 1.50 -2.05 1.90 0 0.60 4.20 -2.30 7.40 -3.25 3.60 -3.25 3.60 -31 3.60 -22.80 0 -24.70 -0.10 -26.60 -0.95z m57.85 -124.85 c-0.60 -0.95 -1.05 -2.10 -1.05 -2.50 0 -0.40 -0.35 -0.70 -0.75 -0.70 -0.45 0 -1.50 -0.50 -2.30 -1.10 l-1.55 -1.15 -24.30 -0.15 c-26.65 -0.15 -26.65 -0.15 -29.85 2.80 -1.25 1.15 -2.75 3.55 -2.75 4.35 0 0.15 14.30 0.25 31.80 0.25 l31.80 0 -1.05 -1.80z"/>
  <path d="M408.50 195.75 c0 -0.40 0.35 -0.75 0.80 -0.75 0.45 0 0.90 -0.45 1.05 -1 0.45 -1.75 1.65 -1.20 1.65 0.75 0 1.65 -0.10 1.75 -1.75 1.75 -1.20 0 -1.75 -0.25 -1.75 -0.75z"/>
  <path d="M284.95 88.85 c-1.95 -2.20 -2.40 -2.50 -3.05 -1.95 -0.65 0.50 -0.95 0.50 -1.60 -0.20 -0.65 -0.60 -0.80 -1.55 -0.70 -3.65 0.15 -2.55 0.25 -2.80 1.40 -2.95 3.75 -0.45 7.60 -2.25 10.05 -4.70 3.60 -3.60 4.65 -6.15 4.65 -11.40 0 -5.30 -1.10 -8 -4.70 -11.50 -1.95 -1.90 -3.30 -2.70 -5.80 -3.50 -1.85 -0.55 -3.85 -1 -4.50 -1 -1.15 0 -1.20 -0.15 -1.20 -3.25 l0 -3.25 1.65 0 c1.35 0 1.90 -0.40 3.40 -2.35 2.05 -2.80 2.75 -2.90 7.10 -0.95 l2.85 1.25 -0.30 3.40 -0.30 3.40 1.95 1.55 c1.85 1.50 2.15 1.60 5.25 1.35 l3.25 -0.30 1.30 2.80 c2.25 4.90 2.25 4.75 -0.60 7.30 l-2.60 2.30 0.55 2.65 c0.50 2.30 0.90 2.90 3.05 4.50 1.35 1 2.45 2 2.45 2.30 0 0.25 -0.60 2.10 -1.35 4.15 l-1.40 3.70 -3.65 -0.15 c-3.50 -0.10 -3.70 -0.05 -5.25 1.50 -1.50 1.55 -1.60 1.85 -1.60 5.15 l0 3.50 -3.40 1.50 c-1.90 0.80 -3.70 1.45 -4 1.45 -0.35 0 -1.65 -1.20 -2.90 -2.65z"/>
 </g>
 <g fill="#83d887">
  <path d="M189.80 185.60 c-0.35 -0.60 1.50 -10.15 2.95 -14.90 1.80 -5.95 6.05 -14.60 9.90 -20 4.20 -6 12.15 -13.70 18.30 -17.70 2.75 -1.80 5 -3.40 5 -3.55 0.05 -0.15 -1.70 -3.30 -3.85 -7 -2.15 -3.70 -4.90 -8.55 -6.15 -10.80 -2.15 -4 -2.20 -4.05 -1.25 -5.10 1.15 -1.30 2.40 -1.35 3.40 -0.15 0.45 0.45 3.30 5.25 6.40 10.60 3.10 5.35 5.75 9.90 5.95 10.15 0.20 0.20 1.65 -0.20 3.20 -0.90 15.35 -6.80 38.25 -6.80 54.80 -0.05 1.75 0.70 3.30 1.25 3.35 1.15 0.05 -0.05 2.60 -4.40 5.65 -9.70 3.05 -5.30 5.80 -10.05 6.15 -10.65 1.30 -2.10 4.40 -1.70 4.40 0.60 0 1.10 -1.90 4.65 -7.60 14.25 -2.15 3.65 -3.90 6.90 -3.90 7.25 0 0.35 2.40 2.25 5.30 4.15 6.35 4.20 14.45 12.30 18.80 18.80 3.30 4.90 6.75 11.90 8.60 17.55 1.65 5 3.60 14.45 3.15 15.55 -0.30 0.80 -4.65 0.85 -71.30 0.85 -39.05 0 -71.10 -0.15 -71.25 -0.40z m41.70 -21.05 c3.30 -2.40 3.75 -6.10 1.05 -9 -1.80 -1.95 -4.35 -2.45 -6.75 -1.30 -4.65 2.20 -4.35 8.95 0.40 11.05 1.80 0.80 3.50 0.55 5.30 -0.75z m65.90 0.05 c1.45 -0.95 2.60 -3.15 2.60 -5 0 -3.35 -4.15 -6.65 -7.35 -5.90 -0.75 0.20 -2.10 1.15 -3 2.10 -2.90 3.10 -1.95 7.35 2.10 9.45 1.65 0.85 3.75 0.60 5.65 -0.65z"/>
  <path d="M189.40 81.15 c-0.50 -0.10 -0.90 -0.55 -0.90 -0.95 0 -0.50 0.70 -0.70 2.75 -0.70 2 0 2.75 0.20 2.75 0.70 0 1.05 -2.40 1.55 -4.60 0.95z"/>
  <path d="M223.40 81.15 c-0.50 -0.10 -0.90 -0.55 -0.90 -0.95 0 -0.50 0.70 -0.70 2.80 -0.70 2.35 0 2.75 0.15 2.60 0.90 -0.15 0.85 -2.60 1.30 -4.50 0.75z"/>
  <path d="M321.35 80.70 c-0.20 -0.20 -0.35 -1.35 -0.35 -2.55 l0 -2.20 2.65 0.15 2.60 0.15 0 2.25 0 2.25 -2.25 0.15 c-1.25 0.10 -2.45 0 -2.65 -0.20z m3.90 -2.20 c0 -1.60 -0.15 -1.75 -1.60 -1.90 -1.40 -0.15 -1.65 0.05 -1.95 1.15 -0.40 1.65 0.60 2.85 2.25 2.65 1.10 -0.15 1.30 -0.40 1.30 -1.90z"/>
  <path d="M331.50 79.75 c-0.95 -1.15 0 -1.85 2.30 -1.65 1.55 0.10 1.95 0.35 1.95 1.15 0 1.30 -3.25 1.70 -4.25 0.50z"/>
  <path d="M342.10 80.15 c-1.25 -0.15 -1.60 -0.45 -1.50 -1.05 0.20 -1.05 3.85 -1.50 4.45 -0.55 0.40 0.65 -0.35 2.05 -1 1.85 -0.15 0 -1.05 -0.15 -1.95 -0.25z"/>
  <path d="M221.50 76.25 c0 -0.40 0.35 -0.75 0.80 -0.75 0.45 0 0.90 -0.45 1.05 -1 0.45 -1.75 1.65 -1.20 1.65 0.75 0 1.65 -0.10 1.75 -1.75 1.75 -1.20 0 -1.75 -0.25 -1.75 -0.75z"/>
  <path d="M187.50 73.75 c0 -1.65 0.10 -1.75 1.75 -1.75 0.95 0 1.75 0.25 1.75 0.50 0 0.30 -0.35 0.50 -0.75 0.50 -0.70 0 -0.95 0.55 -0.80 1.90 0.05 0.30 -0.35 0.60 -0.95 0.60 -0.80 0 -1 -0.30 -1 -1.75z"/>
  <path d="M216 71.30 c0 -0.80 2.65 -1.55 3.50 -1.05 0.30 0.20 1.35 0.20 2.30 0.05 1.90 -0.40 2.35 -1.70 0.70 -2.15 -1.75 -0.45 -1.20 -1.65 0.75 -1.65 1.90 0 2.10 0.55 1.45 3.95 l-0.30 1.55 -4.20 0 c-3.30 0 -4.20 -0.15 -4.20 -0.70z"/>
  <path d="M323.15 71.65 c-0.70 -0.25 -0.85 -2.50 -0.35 -3.85 0.15 -0.45 0.75 -0.80 1.25 -0.80 0.80 0 0.95 0.35 0.95 2.20 0 2.15 -0.55 2.90 -1.85 2.45z"/>
  <path d="M330.75 71.55 c-0.40 -0.65 -0.15 -12.95 0.30 -13.65 0.35 -0.60 7.90 -1.05 10.10 -0.60 0.75 0.15 1.35 0.60 1.35 1 0 0.55 -1 0.70 -5 0.70 l-5 0 0 6.50 c0 5.35 -0.15 6.50 -0.70 6.50 -0.40 0 -0.85 -0.20 -1.05 -0.45z"/>
  <path d="M352.15 71.65 c-0.90 -0.35 -0.80 -3.40 0.10 -4.15 1.15 -0.95 1.85 0 1.65 2.25 -0.15 1.90 -0.60 2.40 -1.75 1.90z"/>
  <path d="M406.40 68.65 c-1.40 -0.35 -1.10 -1.65 0.35 -1.65 2.35 0 5.25 -1.20 5.25 -2.10 0 -0.50 0.30 -0.90 0.70 -0.90 0.45 0 0.80 -0.60 0.90 -1.60 0.10 -1.40 0.40 -1.70 1.55 -1.80 l1.35 -0.15 0 -6 c0 -5.85 0 -5.95 1.15 -5.95 1.10 0 1.10 0 0.85 6.85 l-0.25 6.90 -1.40 0.25 c-0.95 0.15 -1.75 0.85 -2.50 2.20 -0.60 1.10 -1.65 2.35 -2.35 2.85 -1.35 0.95 -4.20 1.50 -5.60 1.10z"/>
  <path d="M402.40 65.65 c-0.45 -0.50 -0.95 -1.40 -1.10 -2 -0.25 -0.70 -0.80 -1.15 -1.70 -1.25 -0.80 -0.10 -1.40 -0.50 -1.50 -1 -0.15 -0.75 0.20 -0.90 1.85 -0.90 1.85 0 2.05 0.10 2.05 1.25 0 0.80 0.30 1.25 0.75 1.25 0.50 0 0.75 0.55 0.75 1.75 0 2 -0.05 2.05 -1.10 0.90z"/>
  <path d="M322.70 61.85 c-0.15 -0.40 -0.20 -1.50 -0.10 -2.45 0.10 -1.25 0.40 -1.65 1.15 -1.65 0.85 0 1 0.35 1 2.25 0 1.75 -0.20 2.25 -0.90 2.40 -0.45 0.10 -1 -0.15 -1.15 -0.55z"/>
  <path d="M351.70 61.85 c-0.15 -0.40 -0.20 -1.50 -0.10 -2.45 0.10 -1.25 0.40 -1.65 1.15 -1.65 0.85 0 1 0.35 1 2.25 0 1.75 -0.20 2.25 -0.90 2.40 -0.45 0.10 -1 -0.15 -1.15 -0.55z"/>
  <path d="M343.50 58.30 c0 -0.35 0.45 -0.80 1 -0.95 0.75 -0.20 1 0 1 0.70 0 0.60 -0.35 0.95 -1 0.95 -0.55 0 -1 -0.30 -1 -0.70z"/>
  <path d="M398 52.95 c0 -3 -0.05 -3.10 -2.70 -6 -3.55 -3.80 -4.80 -7.10 -4.80 -12.45 0 -5.65 1.30 -8.95 4.95 -12.55 3.80 -3.75 7.30 -5.10 12.80 -5.10 4.70 0 7.35 0.85 10.85 3.50 2.60 2 4.40 4.30 5.65 7.30 l0.75 1.85 -1.25 0 c-1.05 0 -1.25 -0.25 -1.25 -1.50 0 -1 -0.25 -1.50 -0.75 -1.50 -0.40 0 -0.75 -0.40 -0.75 -0.90 0 -0.45 -0.50 -1.10 -1.10 -1.35 -0.65 -0.30 -1.20 -1 -1.30 -1.60 -0.10 -0.85 -0.50 -1.15 -1.35 -1.15 -0.65 0 -1.25 -0.20 -1.35 -0.45 -0.15 -0.40 -5.90 -2.70 -6.15 -2.45 -0.10 0.10 -0.25 0.95 -0.35 1.90 -0.10 1.40 0.05 1.75 0.85 1.90 2.30 0.35 3.20 0.65 3.85 1.25 0.40 0.30 1.10 0.85 1.65 1.15 0.50 0.30 1.15 0.95 1.45 1.50 0.30 0.50 0.70 1.05 0.90 1.20 0.65 0.50 1.40 3.05 1.40 4.80 0 2.55 -1.25 2.15 -2 -0.65 -2.55 -9.05 -14.80 -10.40 -19.05 -2.05 -1.45 2.85 -1.30 7.65 0.35 10.20 1.45 2.25 3.75 4 6.15 4.70 2.10 0.60 6.70 -0.20 8.50 -1.45 1.70 -1.20 3.85 -4.30 4.30 -6.15 0.20 -0.80 0.70 -1.40 1.10 -1.40 0.60 0 0.75 0.45 0.55 2.25 -0.35 2.90 -1.55 4.75 -3.15 4.75 -1 0 -1.25 0.25 -1.25 1.25 0 0.80 -0.30 1.25 -0.75 1.25 -0.40 0 -0.75 0.20 -0.75 0.45 0 0.25 -0.85 0.60 -1.95 0.80 l-1.90 0.30 -0.45 4.60 -0.45 4.60 -5.60 0.15 -5.65 0.15 0 -3.10z"/>
  <path d="M322.30 52.35 c-0.60 -0.45 -0.85 -1.15 -0.70 -2.35 0.15 -1.55 0.30 -1.75 1.80 -1.90 0.90 -0.10 2 0.10 2.40 0.45 1.05 0.85 0.85 2.80 -0.40 3.65 -1.35 0.95 -1.95 1 -3.10 0.15z"/>
  <path d="M351.10 52.45 c-0.95 -0.35 -1.15 -0.75 -1 -2.30 0.15 -1.85 0.20 -1.90 2.30 -2.05 l2.10 -0.15 0 2.20 c0 2.75 -0.85 3.35 -3.40 2.30z"/>
  <path d="M331.30 50.65 c-0.50 -1.20 0.35 -1.75 2.50 -1.55 1.55 0.10 1.95 0.35 1.95 1.10 0 0.80 -0.40 1.05 -2.10 1.15 -1.55 0.10 -2.15 -0.10 -2.35 -0.70z"/>
  <path d="M340.70 50.80 c-0.50 -1.25 0.25 -1.80 2.35 -1.80 1.80 0 2 0.10 1.85 1.15 -0.10 0.90 -0.50 1.15 -2.05 1.25 -1.30 0.10 -1.95 -0.05 -2.15 -0.60z"/>
  <path d="M421.50 44.65 c0 -1.70 1.40 -5.15 2.10 -5.15 0.20 0 0.40 -0.80 0.40 -1.75 0 -1.40 0.20 -1.75 1 -1.75 0.65 0 1 0.35 1 1 0 1.60 -2 6.45 -3.30 7.90 l-1.15 1.35 -0.05 -1.60z"/>
 </g>
 <g fill="#73c071">
  <path d="M187 71.50 l0 -9.50 20.50 0 20.50 0 0 9.50 0 9.50 -20.50 0 -20.50 0 0 -9.50z m36.40 2.90 l-0.15 -1.15 -16.70 -0.15 c-9.20 -0.05 -16.95 0.10 -17.15 0.30 -0.25 0.25 -0.30 0.80 -0.10 1.25 0.30 0.75 1.90 0.85 17.30 0.85 l16.95 0 -0.15 -1.10z m0 -5.25 l0.15 -1.15 -17 0 c-11.25 0 -17.10 0.20 -17.30 0.50 -0.20 0.30 -0.05 0.85 0.25 1.30 0.55 0.60 3.10 0.70 17.20 0.60 l16.55 -0.15 0.15 -1.10z"/>
  <path d="M349.60 77.05 c0.35 -0.55 0.80 -0.85 1 -0.75 0.20 0.15 0.40 0.05 0.40 -0.15 0 -0.25 0.45 -0.45 1 -0.50 0.65 -0.05 1 0.20 1 0.85 0 1 -0.95 1.50 -2.80 1.50 -1.05 0 -1.15 -0.10 -0.60 -0.95z"/>
  <path d="M330.95 71.80 c-0.35 -0.40 0.30 -14.55 0.70 -14.40 0.20 0.05 3.40 0.10 7.10 0.10 l6.75 0 0 7.25 0 7.25 -7.15 0 c-3.95 0 -7.30 -0.10 -7.40 -0.20z"/>
  <path d="M406.30 68.45 c-1.85 -0.50 -3.65 -2.20 -4.85 -4.55 -0.75 -1.45 -1.25 -1.85 -2.10 -1.75 -1.05 0.10 -1.10 -0.10 -1.25 -3.75 -0.15 -4.45 -0.35 -4.35 5.45 -4 2.50 0.15 3.95 0.05 4.15 -0.35 0.20 -0.30 0.40 -2.45 0.45 -4.75 l0.10 -4.20 2.10 -0.35 c2.45 -0.35 6.40 -3.60 7.45 -6.10 1.10 -2.55 0.90 -6.65 -0.45 -9.20 -1.40 -2.60 -4.55 -5 -7.20 -5.40 l-1.90 -0.30 -0.05 -3.40 -0.10 -3.35 1.95 0 c5.10 0 11.65 4.55 14.30 9.90 1.25 2.55 1.40 3.40 1.40 7.60 -0.05 4.40 -0.15 5 -1.70 8 -0.95 1.80 -2.60 4.10 -3.70 5.15 l-2.05 1.85 -0.10 6.40 -0.05 6.35 -1.30 0 c-1.05 0 -1.55 0.45 -2.50 2.25 -1.70 3.25 -5 4.85 -8.05 3.95z"/>
 </g>
 <g fill="#5b5a5d">
  <path d="M351.65 206.45 c-2.40 -1.15 -4.45 -3.35 -5.50 -5.80 -0.55 -1.35 -0.65 -12.05 -0.65 -59.50 0 -54.90 0.05 -58 0.95 -59.90 1.10 -2.50 3.95 -5.05 6.40 -5.75 1.30 -0.40 9.95 -0.50 27.50 -0.40 l25.55 0.15 2.20 1.55 c1.30 0.95 2.70 2.65 3.55 4.20 l1.35 2.65 -0.10 58.05 c-0.15 64 0.10 59.15 -3.25 62.50 -3.25 3.35 -2.75 3.30 -30.65 3.30 -24.65 0 -25.30 -0.05 -27.35 -1.05z m29.05 -4.25 c1.05 -1 1 -1.50 -0.20 -2.70 -1.30 -1.30 -1.60 -1.25 -2.95 0.20 l-1.15 1.20 1.05 1.05 c1.25 1.25 2.20 1.35 3.25 0.25z m29.80 -61.95 l0 -54.75 -31.25 0 -31.25 0 0 54.75 0 54.75 31.25 0 31.25 0 0 -54.75z"/>
 </g>
 <g fill="#4b4a4a">
  <path d="M377.20 204.30 c-2.75 -1.20 -3.10 -4.45 -0.65 -6.50 1.75 -1.50 1.95 -1.55 4.15 -0.60 3.40 1.40 3.50 6.10 0.20 7.25 -1.90 0.65 -1.80 0.65 -3.70 -0.15z"/>
  <path d="M409.50 203.65 c0.65 -0.90 1.25 -1.65 1.35 -1.65 0.40 0 -0.85 1.90 -1.65 2.55 -0.55 0.45 -0.45 0.10 0.30 -0.90z"/>
  <path d="M371.25 81 c-0.35 -0.60 -0.70 -0.55 7.75 -0.60 8.20 0 8 0 8 0.60 0 0.30 -2.90 0.50 -7.70 0.50 -4.65 0 -7.85 -0.20 -8.05 -0.50z"/>
  <path d="M356.40 75.15 c0.90 -0.10 2.25 -0.10 3 0 0.75 0.10 0 0.20 -1.65 0.20 -1.65 0 -2.25 -0.10 -1.35 -0.20z"/>
  <path d="M389.15 75.15 c2.65 -0.10 7.05 -0.10 9.75 0 2.65 0.05 0.45 0.15 -4.90 0.15 -5.35 0 -7.55 -0.10 -4.85 -0.15z"/>
 </g>
</svg>